%TF.GenerationSoftware,KiCad,Pcbnew,(6.0.7)*%
%TF.CreationDate,2022-10-10T13:15:42-04:00*%
%TF.ProjectId,dumbwatch,64756d62-7761-4746-9368-2e6b69636164,rev?*%
%TF.SameCoordinates,Original*%
%TF.FileFunction,Soldermask,Bot*%
%TF.FilePolarity,Negative*%
%FSLAX46Y46*%
G04 Gerber Fmt 4.6, Leading zero omitted, Abs format (unit mm)*
G04 Created by KiCad (PCBNEW (6.0.7)) date 2022-10-10 13:15:42*
%MOMM*%
%LPD*%
G01*
G04 APERTURE LIST*
G04 Aperture macros list*
%AMRoundRect*
0 Rectangle with rounded corners*
0 $1 Rounding radius*
0 $2 $3 $4 $5 $6 $7 $8 $9 X,Y pos of 4 corners*
0 Add a 4 corners polygon primitive as box body*
4,1,4,$2,$3,$4,$5,$6,$7,$8,$9,$2,$3,0*
0 Add four circle primitives for the rounded corners*
1,1,$1+$1,$2,$3*
1,1,$1+$1,$4,$5*
1,1,$1+$1,$6,$7*
1,1,$1+$1,$8,$9*
0 Add four rect primitives between the rounded corners*
20,1,$1+$1,$2,$3,$4,$5,0*
20,1,$1+$1,$4,$5,$6,$7,0*
20,1,$1+$1,$6,$7,$8,$9,0*
20,1,$1+$1,$8,$9,$2,$3,0*%
G04 Aperture macros list end*
%ADD10RoundRect,0.150000X-0.150000X0.587500X-0.150000X-0.587500X0.150000X-0.587500X0.150000X0.587500X0*%
%ADD11R,1.400000X0.400000*%
%ADD12R,1.900000X2.300000*%
%ADD13R,1.900000X1.800000*%
%ADD14R,1.100000X0.600000*%
%ADD15R,2.400000X1.500000*%
%ADD16RoundRect,0.250001X0.462499X1.074999X-0.462499X1.074999X-0.462499X-1.074999X0.462499X-1.074999X0*%
%ADD17R,0.450000X1.750000*%
%ADD18RoundRect,0.250000X-0.350000X-0.450000X0.350000X-0.450000X0.350000X0.450000X-0.350000X0.450000X0*%
%ADD19RoundRect,0.250000X0.475000X-0.337500X0.475000X0.337500X-0.475000X0.337500X-0.475000X-0.337500X0*%
%ADD20R,0.900000X1.200000*%
%ADD21R,1.100000X1.100000*%
%ADD22R,1.200000X0.900000*%
%ADD23RoundRect,0.250000X-0.475000X0.337500X-0.475000X-0.337500X0.475000X-0.337500X0.475000X0.337500X0*%
%ADD24RoundRect,0.250000X0.450000X-0.350000X0.450000X0.350000X-0.450000X0.350000X-0.450000X-0.350000X0*%
%ADD25RoundRect,0.250000X0.350000X0.450000X-0.350000X0.450000X-0.350000X-0.450000X0.350000X-0.450000X0*%
%ADD26RoundRect,0.250000X-0.337500X-0.475000X0.337500X-0.475000X0.337500X0.475000X-0.337500X0.475000X0*%
%ADD27RoundRect,0.250001X0.462499X0.624999X-0.462499X0.624999X-0.462499X-0.624999X0.462499X-0.624999X0*%
%ADD28RoundRect,0.250000X-0.450000X0.350000X-0.450000X-0.350000X0.450000X-0.350000X0.450000X0.350000X0*%
%ADD29RoundRect,0.250000X-0.350000X-0.625000X0.350000X-0.625000X0.350000X0.625000X-0.350000X0.625000X0*%
%ADD30O,1.200000X1.750000*%
G04 APERTURE END LIST*
D10*
X124460000Y-128953500D03*
X125410000Y-127078500D03*
X123510000Y-127078500D03*
D11*
X106706000Y-132491000D03*
X106706000Y-131841000D03*
X106706000Y-131191000D03*
X106706000Y-130541000D03*
X106706000Y-129891000D03*
D12*
X103856000Y-127441000D03*
D13*
X103856000Y-130041000D03*
D12*
X103856000Y-134941000D03*
D13*
X103856000Y-132341000D03*
D14*
X121997000Y-120134000D03*
X121997000Y-119134000D03*
D15*
X116397000Y-119634000D03*
D16*
X125258500Y-132080000D03*
X128233500Y-132080000D03*
D17*
X112361000Y-129838000D03*
X113011000Y-129838000D03*
X113661000Y-129838000D03*
X114311000Y-129838000D03*
X114961000Y-129838000D03*
X115611000Y-129838000D03*
X116261000Y-129838000D03*
X116911000Y-129838000D03*
X117561000Y-129838000D03*
X118211000Y-129838000D03*
X118861000Y-129838000D03*
X119511000Y-129838000D03*
X120161000Y-129838000D03*
X120811000Y-129838000D03*
X120811000Y-122638000D03*
X120161000Y-122638000D03*
X119511000Y-122638000D03*
X118861000Y-122638000D03*
X118211000Y-122638000D03*
X117561000Y-122638000D03*
X116911000Y-122638000D03*
X116261000Y-122638000D03*
X115611000Y-122638000D03*
X114961000Y-122638000D03*
X114311000Y-122638000D03*
X113661000Y-122638000D03*
X113011000Y-122638000D03*
X112361000Y-122638000D03*
D18*
X127492000Y-124739400D03*
X125492000Y-124739400D03*
D19*
X128016000Y-126978500D03*
X128016000Y-129053500D03*
D20*
X117222000Y-132588000D03*
X120522000Y-132588000D03*
D21*
X109474000Y-132712000D03*
X109474000Y-135512000D03*
D20*
X125096000Y-135382000D03*
X128396000Y-135382000D03*
D22*
X109474000Y-129666000D03*
X109474000Y-126366000D03*
D18*
X112030000Y-132588000D03*
X114030000Y-132588000D03*
D23*
X122682000Y-134641500D03*
X122682000Y-132566500D03*
D24*
X109474000Y-121428000D03*
X109474000Y-123428000D03*
D25*
X112030000Y-135128000D03*
X114030000Y-135128000D03*
D20*
X120522000Y-135382000D03*
X117222000Y-135382000D03*
D26*
X115040500Y-116840000D03*
X117115500Y-116840000D03*
X121941500Y-116840000D03*
X119866500Y-116840000D03*
D27*
X103922500Y-117348000D03*
X106897500Y-117348000D03*
D26*
X110468500Y-119380000D03*
X112543500Y-119380000D03*
D24*
X104140000Y-124714000D03*
X104140000Y-122714000D03*
D28*
X106680000Y-124698000D03*
X106680000Y-122698000D03*
D18*
X109998000Y-116840000D03*
X111998000Y-116840000D03*
D27*
X106897500Y-120396000D03*
X103922500Y-120396000D03*
D29*
X125365000Y-121920000D03*
D30*
X127365000Y-121920000D03*
M02*
