M48
; DRILL file {KiCad (6.0.7)} date Mon 10 Oct 2022 01:16:39 PM EDT
; FORMAT={-:-/ absolute / metric / decimal}
; #@! TF.CreationDate,2022-10-10T13:16:39-04:00
; #@! TF.GenerationSoftware,Kicad,Pcbnew,(6.0.7)
; #@! TF.FileFunction,Plated,1,2,PTH
FMAT,2
METRIC
; #@! TA.AperFunction,Plated,PTH,ViaDrill
T1C0.300
; #@! TA.AperFunction,Plated,PTH,ComponentDrill
T2C0.750
%
G90
G05
T1
X102.87Y-122.682
X102.961Y-121.58
X105.029Y-123.698
X105.41Y-129.749
X105.791Y-118.872
X106.553Y-133.858
X107.95Y-130.692
X107.984Y-131.491
X108.712Y-118.11
X108.966Y-119.38
X109.474Y-127.381
X109.855Y-128.27
X109.893Y-124.786
X110.363Y-127.381
X110.49Y-134.112
X110.497Y-122.595
X110.534Y-118.154
X110.871Y-121.793
X110.998Y-131.191
X111.125Y-123.097
X112.094Y-121.124
X112.256Y-128.004
X112.395Y-118.11
X112.771Y-127.392
X113.286Y-131.21
X114.046Y-117.981
X114.173Y-128.463
X114.3Y-131.065
X114.808Y-127.261
X114.973Y-128.463
X115.57Y-131.064
X115.824Y-127.97
X116.205Y-133.985
X116.669Y-128.441
X116.734Y-125.37
X116.841Y-131.065
X117.221Y-124.206
X117.602Y-128.524
X118.11Y-135.382
X118.125Y-131.08
X118.618Y-116.078
X118.872Y-132.207
X118.923Y-120.105
X118.999Y-131.213
X119.043Y-117.917
X119.634Y-132.588
X120.142Y-121.158
X122.428Y-123.063
X123.389Y-119.985
X125.095Y-117.602
X126.492Y-123.19
X126.746Y-133.223
X127.0Y-119.126
T2
X125.365Y-121.92
X127.365Y-121.92
T0
M30
