%TF.GenerationSoftware,KiCad,Pcbnew,(6.0.7)*%
%TF.CreationDate,2022-10-10T13:15:42-04:00*%
%TF.ProjectId,dumbwatch,64756d62-7761-4746-9368-2e6b69636164,rev?*%
%TF.SameCoordinates,Original*%
%TF.FileFunction,Copper,L2,Bot*%
%TF.FilePolarity,Positive*%
%FSLAX46Y46*%
G04 Gerber Fmt 4.6, Leading zero omitted, Abs format (unit mm)*
G04 Created by KiCad (PCBNEW (6.0.7)) date 2022-10-10 13:15:42*
%MOMM*%
%LPD*%
G01*
G04 APERTURE LIST*
G04 Aperture macros list*
%AMRoundRect*
0 Rectangle with rounded corners*
0 $1 Rounding radius*
0 $2 $3 $4 $5 $6 $7 $8 $9 X,Y pos of 4 corners*
0 Add a 4 corners polygon primitive as box body*
4,1,4,$2,$3,$4,$5,$6,$7,$8,$9,$2,$3,0*
0 Add four circle primitives for the rounded corners*
1,1,$1+$1,$2,$3*
1,1,$1+$1,$4,$5*
1,1,$1+$1,$6,$7*
1,1,$1+$1,$8,$9*
0 Add four rect primitives between the rounded corners*
20,1,$1+$1,$2,$3,$4,$5,0*
20,1,$1+$1,$4,$5,$6,$7,0*
20,1,$1+$1,$6,$7,$8,$9,0*
20,1,$1+$1,$8,$9,$2,$3,0*%
G04 Aperture macros list end*
%TA.AperFunction,SMDPad,CuDef*%
%ADD10RoundRect,0.150000X-0.150000X0.587500X-0.150000X-0.587500X0.150000X-0.587500X0.150000X0.587500X0*%
%TD*%
%TA.AperFunction,SMDPad,CuDef*%
%ADD11R,1.400000X0.400000*%
%TD*%
%TA.AperFunction,SMDPad,CuDef*%
%ADD12R,1.900000X2.300000*%
%TD*%
%TA.AperFunction,SMDPad,CuDef*%
%ADD13R,1.900000X1.800000*%
%TD*%
%TA.AperFunction,SMDPad,CuDef*%
%ADD14R,1.100000X0.600000*%
%TD*%
%TA.AperFunction,SMDPad,CuDef*%
%ADD15R,2.400000X1.500000*%
%TD*%
%TA.AperFunction,SMDPad,CuDef*%
%ADD16RoundRect,0.250001X0.462499X1.074999X-0.462499X1.074999X-0.462499X-1.074999X0.462499X-1.074999X0*%
%TD*%
%TA.AperFunction,SMDPad,CuDef*%
%ADD17R,0.450000X1.750000*%
%TD*%
%TA.AperFunction,SMDPad,CuDef*%
%ADD18RoundRect,0.250000X-0.350000X-0.450000X0.350000X-0.450000X0.350000X0.450000X-0.350000X0.450000X0*%
%TD*%
%TA.AperFunction,SMDPad,CuDef*%
%ADD19RoundRect,0.250000X0.475000X-0.337500X0.475000X0.337500X-0.475000X0.337500X-0.475000X-0.337500X0*%
%TD*%
%TA.AperFunction,SMDPad,CuDef*%
%ADD20R,0.900000X1.200000*%
%TD*%
%TA.AperFunction,SMDPad,CuDef*%
%ADD21R,1.100000X1.100000*%
%TD*%
%TA.AperFunction,SMDPad,CuDef*%
%ADD22R,1.200000X0.900000*%
%TD*%
%TA.AperFunction,SMDPad,CuDef*%
%ADD23RoundRect,0.250000X-0.475000X0.337500X-0.475000X-0.337500X0.475000X-0.337500X0.475000X0.337500X0*%
%TD*%
%TA.AperFunction,SMDPad,CuDef*%
%ADD24RoundRect,0.250000X0.450000X-0.350000X0.450000X0.350000X-0.450000X0.350000X-0.450000X-0.350000X0*%
%TD*%
%TA.AperFunction,SMDPad,CuDef*%
%ADD25RoundRect,0.250000X0.350000X0.450000X-0.350000X0.450000X-0.350000X-0.450000X0.350000X-0.450000X0*%
%TD*%
%TA.AperFunction,SMDPad,CuDef*%
%ADD26RoundRect,0.250000X-0.337500X-0.475000X0.337500X-0.475000X0.337500X0.475000X-0.337500X0.475000X0*%
%TD*%
%TA.AperFunction,SMDPad,CuDef*%
%ADD27RoundRect,0.250001X0.462499X0.624999X-0.462499X0.624999X-0.462499X-0.624999X0.462499X-0.624999X0*%
%TD*%
%TA.AperFunction,SMDPad,CuDef*%
%ADD28RoundRect,0.250000X-0.450000X0.350000X-0.450000X-0.350000X0.450000X-0.350000X0.450000X0.350000X0*%
%TD*%
%TA.AperFunction,ComponentPad*%
%ADD29RoundRect,0.250000X-0.350000X-0.625000X0.350000X-0.625000X0.350000X0.625000X-0.350000X0.625000X0*%
%TD*%
%TA.AperFunction,ComponentPad*%
%ADD30O,1.200000X1.750000*%
%TD*%
%TA.AperFunction,ViaPad*%
%ADD31C,0.600000*%
%TD*%
%TA.AperFunction,Conductor*%
%ADD32C,0.203200*%
%TD*%
G04 APERTURE END LIST*
D10*
X124460000Y-128953500D03*
X125410000Y-127078500D03*
X123510000Y-127078500D03*
D11*
X106706000Y-132491000D03*
X106706000Y-131841000D03*
X106706000Y-131191000D03*
X106706000Y-130541000D03*
X106706000Y-129891000D03*
D12*
X103856000Y-127441000D03*
D13*
X103856000Y-130041000D03*
D12*
X103856000Y-134941000D03*
D13*
X103856000Y-132341000D03*
D14*
X121997000Y-120134000D03*
X121997000Y-119134000D03*
D15*
X116397000Y-119634000D03*
D16*
X125258500Y-132080000D03*
X128233500Y-132080000D03*
D17*
X112361000Y-129838000D03*
X113011000Y-129838000D03*
X113661000Y-129838000D03*
X114311000Y-129838000D03*
X114961000Y-129838000D03*
X115611000Y-129838000D03*
X116261000Y-129838000D03*
X116911000Y-129838000D03*
X117561000Y-129838000D03*
X118211000Y-129838000D03*
X118861000Y-129838000D03*
X119511000Y-129838000D03*
X120161000Y-129838000D03*
X120811000Y-129838000D03*
X120811000Y-122638000D03*
X120161000Y-122638000D03*
X119511000Y-122638000D03*
X118861000Y-122638000D03*
X118211000Y-122638000D03*
X117561000Y-122638000D03*
X116911000Y-122638000D03*
X116261000Y-122638000D03*
X115611000Y-122638000D03*
X114961000Y-122638000D03*
X114311000Y-122638000D03*
X113661000Y-122638000D03*
X113011000Y-122638000D03*
X112361000Y-122638000D03*
D18*
X127492000Y-124739400D03*
X125492000Y-124739400D03*
D19*
X128016000Y-126978500D03*
X128016000Y-129053500D03*
D20*
X117222000Y-132588000D03*
X120522000Y-132588000D03*
D21*
X109474000Y-132712000D03*
X109474000Y-135512000D03*
D20*
X125096000Y-135382000D03*
X128396000Y-135382000D03*
D22*
X109474000Y-129666000D03*
X109474000Y-126366000D03*
D18*
X112030000Y-132588000D03*
X114030000Y-132588000D03*
D23*
X122682000Y-134641500D03*
X122682000Y-132566500D03*
D24*
X109474000Y-121428000D03*
X109474000Y-123428000D03*
D25*
X112030000Y-135128000D03*
X114030000Y-135128000D03*
D20*
X120522000Y-135382000D03*
X117222000Y-135382000D03*
D26*
X115040500Y-116840000D03*
X117115500Y-116840000D03*
X121941500Y-116840000D03*
X119866500Y-116840000D03*
D27*
X103922500Y-117348000D03*
X106897500Y-117348000D03*
D26*
X110468500Y-119380000D03*
X112543500Y-119380000D03*
D24*
X104140000Y-124714000D03*
X104140000Y-122714000D03*
D28*
X106680000Y-124698000D03*
X106680000Y-122698000D03*
D18*
X109998000Y-116840000D03*
X111998000Y-116840000D03*
D27*
X106897500Y-120396000D03*
X103922500Y-120396000D03*
D29*
X125365000Y-121920000D03*
D30*
X127365000Y-121920000D03*
D31*
X114046000Y-117981300D03*
X105029000Y-123698000D03*
X126746000Y-133223000D03*
X116205000Y-133985000D03*
X110490000Y-134112000D03*
X125095000Y-117602000D03*
X102870000Y-122682000D03*
X105410000Y-129748500D03*
X110534042Y-118154042D03*
X108712000Y-118110000D03*
X112395000Y-118110000D03*
X118923499Y-120105415D03*
X110871000Y-121793000D03*
X110497285Y-122595200D03*
X111125000Y-123097500D03*
X105791000Y-118872000D03*
X102960521Y-121579812D03*
X123388811Y-119985018D03*
X126492000Y-123190000D03*
X117221000Y-124206000D03*
X112094356Y-121124100D03*
X115824000Y-127969953D03*
X109855000Y-128270000D03*
X112256353Y-128004353D03*
X112770661Y-127392233D03*
X110363000Y-127381000D03*
X114808000Y-127260798D03*
X110998000Y-131191000D03*
X122428000Y-123063000D03*
X113285908Y-131210002D03*
X118872000Y-132207000D03*
X118999000Y-131212502D03*
X107949867Y-130692429D03*
X107983900Y-131491207D03*
X109474000Y-127381000D03*
X106553000Y-133858000D03*
X116734400Y-125370400D03*
X109893337Y-124785600D03*
X119043042Y-117917458D03*
X108966000Y-119380000D03*
X118618000Y-116078000D03*
X120142000Y-121158000D03*
X127000000Y-119126000D03*
X118110000Y-135382000D03*
X119634000Y-132588000D03*
X114173000Y-128462998D03*
X114300000Y-131064502D03*
X118124802Y-131080036D03*
X117602000Y-128524000D03*
X116840701Y-131064695D03*
X116668958Y-128441042D03*
X115570000Y-131064000D03*
X114972503Y-128462998D03*
D32*
X113792000Y-133858000D02*
X114173000Y-133858000D01*
X114173000Y-133858000D02*
X116344600Y-131686400D01*
X116344600Y-131686400D02*
X117518438Y-131686400D01*
X117518438Y-131686400D02*
X118124802Y-131080036D01*
X119043042Y-117917458D02*
X120461542Y-117917458D01*
X120461542Y-117917458D02*
X120904000Y-117475000D01*
X120904000Y-117475000D02*
X120904000Y-116205000D01*
X123179400Y-115813400D02*
X123952000Y-116586000D01*
X120904000Y-116205000D02*
X121295600Y-115813400D01*
X121295600Y-115813400D02*
X123179400Y-115813400D01*
X115040500Y-116986800D02*
X114046000Y-117981300D01*
X115040500Y-116840000D02*
X115040500Y-116986800D01*
X106706000Y-129891000D02*
X106706000Y-126963790D01*
X105156000Y-123825000D02*
X105029000Y-123698000D01*
X106706000Y-126963790D02*
X105156000Y-125413790D01*
X105156000Y-125413790D02*
X105156000Y-123825000D01*
X105156000Y-119162500D02*
X105387800Y-119394300D01*
X106001520Y-125599600D02*
X106041600Y-125599600D01*
X108615000Y-128173000D02*
X108615000Y-131729000D01*
X105387800Y-119394300D02*
X105387800Y-119456510D01*
X105387800Y-119456510D02*
X105664000Y-119732710D01*
X105664000Y-119732710D02*
X105664000Y-125262080D01*
X105664000Y-125262080D02*
X106001520Y-125599600D01*
X106041600Y-125599600D02*
X108615000Y-128173000D01*
X105410000Y-129748500D02*
X105410000Y-126238000D01*
X105410000Y-126238000D02*
X104902000Y-125730000D01*
X104902000Y-125730000D02*
X103575920Y-125730000D01*
X103575920Y-125730000D02*
X102870000Y-125024080D01*
X102870000Y-125024080D02*
X102870000Y-122682000D01*
X104140000Y-124587000D02*
X105029000Y-123698000D01*
X124206000Y-118491000D02*
X124206000Y-122682000D01*
X125095000Y-117602000D02*
X124206000Y-118491000D01*
X124206000Y-122682000D02*
X124714000Y-123190000D01*
X124714000Y-123190000D02*
X126492000Y-123190000D01*
X109474000Y-130870000D02*
X108615000Y-131729000D01*
X102960521Y-121579812D02*
X103005812Y-121579812D01*
X103005812Y-121579812D02*
X104140000Y-122714000D01*
X105156000Y-119162500D02*
X105156000Y-116114500D01*
X118110000Y-118872000D02*
X117820400Y-118582400D01*
X110534042Y-118154042D02*
X108756042Y-118154042D01*
X117820400Y-118582400D02*
X113338480Y-118582400D01*
X113338480Y-118582400D02*
X112866080Y-118110000D01*
X112866080Y-118110000D02*
X112395000Y-118110000D01*
X108756042Y-118154042D02*
X108712000Y-118110000D01*
X118923499Y-120105415D02*
X118110000Y-119291916D01*
X118110000Y-119291916D02*
X118110000Y-118872000D01*
X123388811Y-119985018D02*
X123388811Y-123118189D01*
X123388811Y-123118189D02*
X120523000Y-125984000D01*
X120523000Y-125984000D02*
X115928800Y-125984000D01*
X110506000Y-121428000D02*
X110871000Y-121793000D01*
X109474000Y-121428000D02*
X110506000Y-121428000D01*
X108331000Y-120904000D02*
X108331000Y-123571000D01*
X110490000Y-120523000D02*
X108712000Y-120523000D01*
X111726600Y-124110390D02*
X111726600Y-121759600D01*
X111726600Y-121759600D02*
X110490000Y-120523000D01*
X113600210Y-125984000D02*
X111726600Y-124110390D01*
X115928800Y-125984000D02*
X113600210Y-125984000D01*
X108712000Y-120523000D02*
X108331000Y-120904000D01*
X108331000Y-123571000D02*
X107204000Y-124698000D01*
X112094356Y-121124100D02*
X112361000Y-121390744D01*
X112361000Y-121390744D02*
X112361000Y-122638000D01*
X111125000Y-123097500D02*
X111125000Y-124079000D01*
X111125000Y-124079000D02*
X113919000Y-126873000D01*
X113919000Y-126873000D02*
X113919000Y-127762000D01*
X113919000Y-127762000D02*
X113011000Y-128670000D01*
X113011000Y-128670000D02*
X113011000Y-129838000D01*
X110497285Y-122595200D02*
X110490000Y-122602485D01*
X110490000Y-122602485D02*
X110490000Y-124206000D01*
X110490000Y-124206000D02*
X113411000Y-127127000D01*
X113411000Y-127127000D02*
X113411000Y-127699790D01*
X113411000Y-127699790D02*
X112361000Y-128749790D01*
X112361000Y-128749790D02*
X112361000Y-129838000D01*
X105791000Y-119289500D02*
X106897500Y-120396000D01*
X105791000Y-118872000D02*
X105791000Y-119289500D01*
X126590400Y-123288400D02*
X126492000Y-123190000D01*
X126590400Y-127627900D02*
X126590400Y-123288400D01*
X113661000Y-122638000D02*
X113661000Y-123716200D01*
X113661000Y-123716200D02*
X115928800Y-125984000D01*
X116911000Y-123896000D02*
X117221000Y-124206000D01*
X116911000Y-122638000D02*
X116911000Y-123896000D01*
X113249200Y-120523000D02*
X114311000Y-121584800D01*
X114311000Y-121584800D02*
X114311000Y-122638000D01*
X111887000Y-120523000D02*
X113249200Y-120523000D01*
X112244706Y-128016000D02*
X112256353Y-128004353D01*
X109855000Y-128270000D02*
X110109000Y-128016000D01*
X110109000Y-128016000D02*
X112244706Y-128016000D01*
X115824000Y-127969953D02*
X116021900Y-127772053D01*
X116021900Y-127772053D02*
X122816447Y-127772053D01*
X122816447Y-127772053D02*
X123510000Y-127078500D01*
X114972503Y-128462998D02*
X114972503Y-129826497D01*
X114173000Y-128462998D02*
X113982802Y-128462998D01*
X113982802Y-128462998D02*
X113661000Y-128784800D01*
X113661000Y-128784800D02*
X113661000Y-129838000D01*
X116668958Y-128441042D02*
X116261000Y-128849000D01*
X116261000Y-128849000D02*
X116261000Y-129838000D01*
X112770661Y-127392233D02*
X112759428Y-127381000D01*
X112759428Y-127381000D02*
X110363000Y-127381000D01*
X114808000Y-127260798D02*
X114916055Y-127368853D01*
X114916055Y-127368853D02*
X119900147Y-127368853D01*
X119900147Y-127368853D02*
X121539000Y-125730000D01*
X121539000Y-125730000D02*
X125090000Y-125730000D01*
X125090000Y-125730000D02*
X125410000Y-126050000D01*
X125410000Y-126050000D02*
X125410000Y-124796000D01*
X125410000Y-127078500D02*
X125410000Y-126050000D01*
X110998000Y-131191000D02*
X110998000Y-131556000D01*
X110998000Y-131556000D02*
X112030000Y-132588000D01*
X111654400Y-120290400D02*
X111887000Y-120523000D01*
X110871000Y-133858000D02*
X113792000Y-133858000D01*
X128016000Y-129053500D02*
X126590400Y-127627900D01*
X120811000Y-123918000D02*
X120205500Y-124523500D01*
X120205500Y-124523500D02*
X119358600Y-125370400D01*
X122428000Y-123063000D02*
X120967500Y-124523500D01*
X120967500Y-124523500D02*
X120205500Y-124523500D01*
X113030000Y-131465910D02*
X113030000Y-133096000D01*
X113285908Y-131210002D02*
X113030000Y-131465910D01*
X113030000Y-133096000D02*
X113792000Y-133858000D01*
X118872000Y-132207000D02*
X119463298Y-131615702D01*
X119463298Y-131615702D02*
X120352298Y-131615702D01*
X120352298Y-131615702D02*
X120811000Y-131157000D01*
X120811000Y-131157000D02*
X120811000Y-129838000D01*
X118999000Y-131212502D02*
X119739498Y-131212502D01*
X119739498Y-131212502D02*
X120161000Y-130791000D01*
X120161000Y-130791000D02*
X120161000Y-129838000D01*
X107949867Y-130692429D02*
X107931887Y-130692429D01*
X107931887Y-130692429D02*
X107433316Y-131191000D01*
X107983900Y-131491207D02*
X107634107Y-131841000D01*
X107634107Y-131841000D02*
X106706000Y-131841000D01*
X123825000Y-131445000D02*
X123825000Y-131064000D01*
X123825000Y-131064000D02*
X123825000Y-130429000D01*
X124841000Y-132080000D02*
X123825000Y-131064000D01*
X123825000Y-132969000D02*
X123825000Y-131445000D01*
X122703500Y-132566500D02*
X123825000Y-131445000D01*
X118088000Y-133604000D02*
X123190000Y-133604000D01*
X117222000Y-132738000D02*
X118088000Y-133604000D01*
X124460000Y-129794000D02*
X123825000Y-130429000D01*
X123190000Y-133604000D02*
X123825000Y-132969000D01*
X105457100Y-115813400D02*
X108976600Y-115813400D01*
X107853000Y-132491000D02*
X108615000Y-131729000D01*
X109474000Y-127381000D02*
X109474000Y-126366000D01*
X103922500Y-120396000D02*
X105156000Y-119162500D01*
X105156000Y-116114500D02*
X105174250Y-116096250D01*
X103922500Y-117348000D02*
X105174250Y-116096250D01*
X105174250Y-116096250D02*
X105457100Y-115813400D01*
X106706000Y-132491000D02*
X107853000Y-132491000D01*
X107853000Y-132491000D02*
X109253000Y-132491000D01*
X109474000Y-129666000D02*
X109474000Y-130870000D01*
X106706000Y-133705000D02*
X106553000Y-133858000D01*
X106706000Y-132491000D02*
X106706000Y-133705000D01*
X103856000Y-134941000D02*
X103856000Y-127441000D01*
X112030000Y-135128000D02*
X110794400Y-136363600D01*
X110794400Y-136363600D02*
X105278600Y-136363600D01*
X105278600Y-136363600D02*
X103856000Y-134941000D01*
X120811000Y-122638000D02*
X120811000Y-123918000D01*
X119358600Y-125370400D02*
X116734400Y-125370400D01*
X109474000Y-124366263D02*
X109893337Y-124785600D01*
X109474000Y-123428000D02*
X109474000Y-124366263D01*
X119866500Y-117094000D02*
X119043042Y-117917458D01*
X108976600Y-115813400D02*
X118353400Y-115813400D01*
X109982000Y-116840000D02*
X108976600Y-115834600D01*
X108976600Y-115834600D02*
X108976600Y-115813400D01*
X118353400Y-115813400D02*
X118618000Y-116078000D01*
X117115500Y-116840000D02*
X119409500Y-119134000D01*
X119409500Y-119134000D02*
X120744999Y-119134000D01*
X118861000Y-122638000D02*
X118861000Y-121017999D01*
X118861000Y-121017999D02*
X120744999Y-119134000D01*
X120744999Y-119134000D02*
X121997000Y-119134000D01*
X119511000Y-122638000D02*
X119511000Y-120938209D01*
X120315209Y-120134000D02*
X121997000Y-120134000D01*
X119511000Y-120938209D02*
X120315209Y-120134000D01*
X120161000Y-121177000D02*
X120142000Y-121158000D01*
X120161000Y-122638000D02*
X120161000Y-121177000D01*
X125365000Y-120761000D02*
X127000000Y-119126000D01*
X125365000Y-121920000D02*
X125365000Y-120761000D01*
X111654400Y-117183600D02*
X111654400Y-120290400D01*
X112543500Y-119380000D02*
X113431200Y-119380000D01*
X113431200Y-119380000D02*
X115611000Y-121559800D01*
X115611000Y-121559800D02*
X115611000Y-122638000D01*
X121941500Y-116840000D02*
X122848600Y-117747100D01*
X122848600Y-117747100D02*
X122848600Y-119721400D01*
X122848600Y-119721400D02*
X122436000Y-120134000D01*
X106897500Y-117348000D02*
X107911600Y-118362100D01*
X107911600Y-118362100D02*
X107911600Y-121466400D01*
X107911600Y-121466400D02*
X106680000Y-122698000D01*
X128016000Y-126978500D02*
X128016000Y-125238000D01*
X128016000Y-125238000D02*
X127492000Y-124714000D01*
X128233500Y-132080000D02*
X128233500Y-129271000D01*
X124460000Y-128953500D02*
X124460000Y-129794000D01*
X121920000Y-135382000D02*
X125096000Y-135382000D01*
X120522000Y-135382000D02*
X121920000Y-135382000D01*
X121920000Y-135382000D02*
X121941500Y-135382000D01*
X121941500Y-135382000D02*
X122682000Y-134641500D01*
X118110000Y-135382000D02*
X117222000Y-135382000D01*
X119634000Y-132588000D02*
X120522000Y-132588000D01*
X114300000Y-131064502D02*
X114300000Y-129849000D01*
X118124802Y-131080036D02*
X118124802Y-129924198D01*
X117602000Y-128524000D02*
X117602000Y-129797000D01*
X116840701Y-131064695D02*
X116840701Y-129908299D01*
X115570000Y-131064000D02*
X115570000Y-129879000D01*
%TA.AperFunction,Conductor*%
G36*
X126172508Y-128088921D02*
G01*
X126217570Y-128117881D01*
X126745595Y-128645906D01*
X126779621Y-128708218D01*
X126782500Y-128735001D01*
X126782500Y-129441400D01*
X126793474Y-129547166D01*
X126795655Y-129553702D01*
X126795655Y-129553704D01*
X126830112Y-129656984D01*
X126849450Y-129714946D01*
X126942522Y-129865348D01*
X127067697Y-129990305D01*
X127073927Y-129994145D01*
X127073928Y-129994146D01*
X127183620Y-130061761D01*
X127218262Y-130083115D01*
X127353661Y-130128024D01*
X127412020Y-130168454D01*
X127439257Y-130234018D01*
X127426724Y-130303900D01*
X127380296Y-130354761D01*
X127309000Y-130398881D01*
X127296652Y-130406522D01*
X127171695Y-130531697D01*
X127167855Y-130537927D01*
X127167854Y-130537928D01*
X127158919Y-130552424D01*
X127078885Y-130682262D01*
X127076581Y-130689209D01*
X127029646Y-130830715D01*
X127023203Y-130850139D01*
X127012500Y-130954600D01*
X127012500Y-133205400D01*
X127012837Y-133208646D01*
X127012837Y-133208650D01*
X127022141Y-133298316D01*
X127023474Y-133311165D01*
X127025655Y-133317701D01*
X127025655Y-133317703D01*
X127046344Y-133379715D01*
X127079450Y-133478945D01*
X127172522Y-133629348D01*
X127297697Y-133754305D01*
X127303927Y-133758145D01*
X127303928Y-133758146D01*
X127441090Y-133842694D01*
X127448262Y-133847115D01*
X127493025Y-133861962D01*
X127609611Y-133900632D01*
X127609613Y-133900632D01*
X127616139Y-133902797D01*
X127622975Y-133903497D01*
X127622978Y-133903498D01*
X127666031Y-133907909D01*
X127720600Y-133913500D01*
X128746400Y-133913500D01*
X128749646Y-133913163D01*
X128749650Y-133913163D01*
X128845307Y-133903238D01*
X128845311Y-133903237D01*
X128852165Y-133902526D01*
X128858705Y-133900344D01*
X128858710Y-133900343D01*
X128865626Y-133898036D01*
X128936576Y-133895452D01*
X128997659Y-133931637D01*
X129029482Y-133995102D01*
X129031500Y-134017560D01*
X129031500Y-134148618D01*
X129011498Y-134216739D01*
X128957842Y-134263232D01*
X128898686Y-134274434D01*
X128890672Y-134274000D01*
X128668115Y-134274000D01*
X128652876Y-134278475D01*
X128651671Y-134279865D01*
X128650000Y-134287548D01*
X128650000Y-135510000D01*
X128629998Y-135578121D01*
X128576342Y-135624614D01*
X128524000Y-135636000D01*
X127456116Y-135636000D01*
X127440877Y-135640475D01*
X127439672Y-135641865D01*
X127438001Y-135649548D01*
X127438001Y-136017500D01*
X127417999Y-136085621D01*
X127364343Y-136132114D01*
X127312001Y-136143500D01*
X126180500Y-136143500D01*
X126112379Y-136123498D01*
X126065886Y-136069842D01*
X126054500Y-136017500D01*
X126054500Y-135109885D01*
X127438000Y-135109885D01*
X127442475Y-135125124D01*
X127443865Y-135126329D01*
X127451548Y-135128000D01*
X128123885Y-135128000D01*
X128139124Y-135123525D01*
X128140329Y-135122135D01*
X128142000Y-135114452D01*
X128142000Y-134292116D01*
X128137525Y-134276877D01*
X128136135Y-134275672D01*
X128128452Y-134274001D01*
X127901331Y-134274001D01*
X127894510Y-134274371D01*
X127843648Y-134279895D01*
X127828396Y-134283521D01*
X127707946Y-134328676D01*
X127692351Y-134337214D01*
X127590276Y-134413715D01*
X127577715Y-134426276D01*
X127501214Y-134528351D01*
X127492676Y-134543946D01*
X127447522Y-134664394D01*
X127443895Y-134679649D01*
X127438369Y-134730514D01*
X127438000Y-134737328D01*
X127438000Y-135109885D01*
X126054500Y-135109885D01*
X126054500Y-134733866D01*
X126047745Y-134671684D01*
X125996615Y-134535295D01*
X125909261Y-134418739D01*
X125792705Y-134331385D01*
X125656316Y-134280255D01*
X125594134Y-134273500D01*
X124597866Y-134273500D01*
X124535684Y-134280255D01*
X124399295Y-134331385D01*
X124282739Y-134418739D01*
X124195385Y-134535295D01*
X124192233Y-134543703D01*
X124159482Y-134631066D01*
X124116840Y-134687830D01*
X124050279Y-134712530D01*
X123980930Y-134697323D01*
X123930812Y-134647037D01*
X123915500Y-134586836D01*
X123915500Y-134253600D01*
X123914009Y-134239232D01*
X123905238Y-134154692D01*
X123905237Y-134154688D01*
X123904526Y-134147834D01*
X123899682Y-134133313D01*
X123851930Y-133990184D01*
X123848550Y-133980054D01*
X123835384Y-133958778D01*
X123816546Y-133890326D01*
X123837707Y-133822556D01*
X123853432Y-133803380D01*
X123949582Y-133707229D01*
X124023402Y-133633410D01*
X124085712Y-133599386D01*
X124156528Y-133604450D01*
X124201514Y-133633333D01*
X124322697Y-133754305D01*
X124328927Y-133758145D01*
X124328928Y-133758146D01*
X124466090Y-133842694D01*
X124473262Y-133847115D01*
X124518025Y-133861962D01*
X124634611Y-133900632D01*
X124634613Y-133900632D01*
X124641139Y-133902797D01*
X124647975Y-133903497D01*
X124647978Y-133903498D01*
X124691031Y-133907909D01*
X124745600Y-133913500D01*
X125771400Y-133913500D01*
X125774646Y-133913163D01*
X125774650Y-133913163D01*
X125870307Y-133903238D01*
X125870311Y-133903237D01*
X125877165Y-133902526D01*
X125883701Y-133900345D01*
X125883703Y-133900345D01*
X126023655Y-133853653D01*
X126044945Y-133846550D01*
X126195348Y-133753478D01*
X126320305Y-133628303D01*
X126368953Y-133549382D01*
X126409275Y-133483968D01*
X126409276Y-133483966D01*
X126413115Y-133477738D01*
X126449926Y-133366757D01*
X126466632Y-133316389D01*
X126466632Y-133316387D01*
X126468797Y-133309861D01*
X126479500Y-133205400D01*
X126479500Y-130954600D01*
X126479163Y-130951350D01*
X126469238Y-130855693D01*
X126469237Y-130855689D01*
X126468526Y-130848835D01*
X126465988Y-130841226D01*
X126414868Y-130688003D01*
X126412550Y-130681055D01*
X126319478Y-130530652D01*
X126194303Y-130405695D01*
X126187081Y-130401243D01*
X126049968Y-130316725D01*
X126049966Y-130316724D01*
X126043738Y-130312885D01*
X125909999Y-130268526D01*
X125882389Y-130259368D01*
X125882387Y-130259368D01*
X125875861Y-130257203D01*
X125869025Y-130256503D01*
X125869022Y-130256502D01*
X125825969Y-130252091D01*
X125771400Y-130246500D01*
X125139950Y-130246500D01*
X125071829Y-130226498D01*
X125025336Y-130172842D01*
X125015232Y-130102568D01*
X125044726Y-130037988D01*
X125050855Y-130031405D01*
X125134453Y-129947807D01*
X125138489Y-129940983D01*
X125138491Y-129940980D01*
X125215108Y-129811427D01*
X125219145Y-129804601D01*
X125265562Y-129644831D01*
X125268500Y-129607502D01*
X125268500Y-128450500D01*
X125288502Y-128382379D01*
X125342158Y-128335886D01*
X125394500Y-128324500D01*
X125626502Y-128324500D01*
X125628950Y-128324307D01*
X125628958Y-128324307D01*
X125657421Y-128322067D01*
X125657426Y-128322066D01*
X125663831Y-128321562D01*
X125776765Y-128288752D01*
X125815988Y-128277357D01*
X125815990Y-128277356D01*
X125823601Y-128275145D01*
X125852411Y-128258107D01*
X125959980Y-128194491D01*
X125959983Y-128194489D01*
X125966807Y-128190453D01*
X126039380Y-128117880D01*
X126101693Y-128083855D01*
X126172508Y-128088921D01*
G37*
%TD.AperFunction*%
%TA.AperFunction,Conductor*%
G36*
X116218675Y-131664500D02*
G01*
X116274454Y-131708422D01*
X116297632Y-131775529D01*
X116289753Y-131825673D01*
X116270255Y-131877684D01*
X116263500Y-131939866D01*
X116263500Y-133236134D01*
X116270255Y-133298316D01*
X116321385Y-133434705D01*
X116408739Y-133551261D01*
X116525295Y-133638615D01*
X116661684Y-133689745D01*
X116723866Y-133696500D01*
X117265498Y-133696500D01*
X117333619Y-133716502D01*
X117354593Y-133733405D01*
X117603078Y-133981890D01*
X117610190Y-133989705D01*
X117614174Y-133995983D01*
X117619952Y-134001409D01*
X117661931Y-134040830D01*
X117664773Y-134043585D01*
X117679593Y-134058405D01*
X117713619Y-134120717D01*
X117708554Y-134191532D01*
X117666007Y-134248368D01*
X117599487Y-134273179D01*
X117590498Y-134273500D01*
X116723866Y-134273500D01*
X116661684Y-134280255D01*
X116525295Y-134331385D01*
X116408739Y-134418739D01*
X116321385Y-134535295D01*
X116270255Y-134671684D01*
X116263500Y-134733866D01*
X116263500Y-136017500D01*
X116243498Y-136085621D01*
X116189842Y-136132114D01*
X116137500Y-136143500D01*
X115147568Y-136143500D01*
X115079447Y-136123498D01*
X115032954Y-136069842D01*
X115022850Y-135999568D01*
X115040308Y-135951384D01*
X115067816Y-135906757D01*
X115073963Y-135893576D01*
X115125138Y-135739290D01*
X115128005Y-135725914D01*
X115137672Y-135631562D01*
X115138000Y-135625146D01*
X115138000Y-135400115D01*
X115133525Y-135384876D01*
X115132135Y-135383671D01*
X115124452Y-135382000D01*
X113902000Y-135382000D01*
X113833879Y-135361998D01*
X113787386Y-135308342D01*
X113776000Y-135256000D01*
X113776000Y-135000000D01*
X113796002Y-134931879D01*
X113849658Y-134885386D01*
X113902000Y-134874000D01*
X115119884Y-134874000D01*
X115135123Y-134869525D01*
X115136328Y-134868135D01*
X115137999Y-134860452D01*
X115137999Y-134630905D01*
X115137662Y-134624386D01*
X115127743Y-134528794D01*
X115124851Y-134515400D01*
X115073412Y-134361216D01*
X115067239Y-134348038D01*
X114981937Y-134210193D01*
X114972901Y-134198792D01*
X114858171Y-134084261D01*
X114846760Y-134075249D01*
X114708757Y-133990184D01*
X114695578Y-133984038D01*
X114675982Y-133977538D01*
X114617623Y-133937106D01*
X114590387Y-133871541D01*
X114602921Y-133801660D01*
X114651247Y-133749649D01*
X114675776Y-133738421D01*
X114696782Y-133731413D01*
X114709962Y-133725239D01*
X114847807Y-133639937D01*
X114859208Y-133630901D01*
X114973739Y-133516171D01*
X114982751Y-133504760D01*
X115067816Y-133366757D01*
X115073963Y-133353576D01*
X115125138Y-133199290D01*
X115128005Y-133185914D01*
X115137672Y-133091562D01*
X115138000Y-133085146D01*
X115138000Y-132860115D01*
X115133525Y-132844876D01*
X115132135Y-132843671D01*
X115124452Y-132842000D01*
X113902000Y-132842000D01*
X113833879Y-132821998D01*
X113787386Y-132768342D01*
X113776000Y-132716000D01*
X113776000Y-132460000D01*
X113796002Y-132391879D01*
X113849658Y-132345386D01*
X113902000Y-132334000D01*
X115119884Y-132334000D01*
X115135123Y-132329525D01*
X115136328Y-132328135D01*
X115137999Y-132320452D01*
X115137999Y-132090905D01*
X115137662Y-132084386D01*
X115127743Y-131988794D01*
X115123395Y-131968657D01*
X115126091Y-131968075D01*
X115123973Y-131909506D01*
X115160173Y-131848432D01*
X115223645Y-131816624D01*
X115289991Y-131822515D01*
X115373168Y-131853448D01*
X115456995Y-131864633D01*
X115545980Y-131876507D01*
X115545984Y-131876507D01*
X115552961Y-131877438D01*
X115559972Y-131876800D01*
X115559976Y-131876800D01*
X115702459Y-131863832D01*
X115733600Y-131860998D01*
X115740302Y-131858820D01*
X115740304Y-131858820D01*
X115899409Y-131807124D01*
X115899412Y-131807123D01*
X115906108Y-131804947D01*
X116061912Y-131712069D01*
X116083410Y-131691597D01*
X116084879Y-131690198D01*
X116148004Y-131657706D01*
X116218675Y-131664500D01*
G37*
%TD.AperFunction*%
%TA.AperFunction,Conductor*%
G36*
X110741012Y-132162277D02*
G01*
X110747595Y-132168406D01*
X110884595Y-132305406D01*
X110918621Y-132367718D01*
X110921500Y-132394501D01*
X110921500Y-133088400D01*
X110921837Y-133091646D01*
X110921837Y-133091650D01*
X110931618Y-133185914D01*
X110932474Y-133194166D01*
X110934655Y-133200702D01*
X110934655Y-133200704D01*
X110962634Y-133284567D01*
X110988450Y-133361946D01*
X111081522Y-133512348D01*
X111206697Y-133637305D01*
X111212927Y-133641145D01*
X111212928Y-133641146D01*
X111350288Y-133725816D01*
X111357262Y-133730115D01*
X111373431Y-133735478D01*
X111382430Y-133738463D01*
X111440791Y-133778893D01*
X111468028Y-133844457D01*
X111455495Y-133914339D01*
X111407171Y-133966351D01*
X111382641Y-133977579D01*
X111363007Y-133984129D01*
X111362997Y-133984133D01*
X111356054Y-133986450D01*
X111205652Y-134079522D01*
X111080695Y-134204697D01*
X111076855Y-134210927D01*
X111076854Y-134210928D01*
X111029625Y-134287548D01*
X110987885Y-134355262D01*
X110966971Y-134418315D01*
X110944886Y-134484902D01*
X110932203Y-134523139D01*
X110931503Y-134529975D01*
X110931502Y-134529978D01*
X110930096Y-134543703D01*
X110921500Y-134627600D01*
X110921500Y-135321498D01*
X110901498Y-135389619D01*
X110884595Y-135410593D01*
X110578593Y-135716595D01*
X110516281Y-135750621D01*
X110489498Y-135753500D01*
X105583501Y-135753500D01*
X105515380Y-135733498D01*
X105494406Y-135716595D01*
X105351405Y-135573594D01*
X105317379Y-135511282D01*
X105314500Y-135484499D01*
X105314500Y-135239885D01*
X108416000Y-135239885D01*
X108420475Y-135255124D01*
X108421865Y-135256329D01*
X108429548Y-135258000D01*
X109201885Y-135258000D01*
X109217124Y-135253525D01*
X109218329Y-135252135D01*
X109220000Y-135244452D01*
X109220000Y-135239885D01*
X109728000Y-135239885D01*
X109732475Y-135255124D01*
X109733865Y-135256329D01*
X109741548Y-135258000D01*
X110513884Y-135258000D01*
X110529123Y-135253525D01*
X110530328Y-135252135D01*
X110531999Y-135244452D01*
X110531999Y-134917331D01*
X110531629Y-134910510D01*
X110526105Y-134859648D01*
X110522479Y-134844396D01*
X110477324Y-134723946D01*
X110468786Y-134708351D01*
X110392285Y-134606276D01*
X110379724Y-134593715D01*
X110277649Y-134517214D01*
X110262054Y-134508676D01*
X110141606Y-134463522D01*
X110126351Y-134459895D01*
X110075486Y-134454369D01*
X110068672Y-134454000D01*
X109746115Y-134454000D01*
X109730876Y-134458475D01*
X109729671Y-134459865D01*
X109728000Y-134467548D01*
X109728000Y-135239885D01*
X109220000Y-135239885D01*
X109220000Y-134472116D01*
X109215525Y-134456877D01*
X109214135Y-134455672D01*
X109206452Y-134454001D01*
X108879331Y-134454001D01*
X108872510Y-134454371D01*
X108821648Y-134459895D01*
X108806396Y-134463521D01*
X108685946Y-134508676D01*
X108670351Y-134517214D01*
X108568276Y-134593715D01*
X108555715Y-134606276D01*
X108479214Y-134708351D01*
X108470676Y-134723946D01*
X108425522Y-134844394D01*
X108421895Y-134859649D01*
X108416369Y-134910514D01*
X108416000Y-134917328D01*
X108416000Y-135239885D01*
X105314500Y-135239885D01*
X105314500Y-133742866D01*
X105307745Y-133680684D01*
X105304973Y-133673288D01*
X105304971Y-133673282D01*
X105262589Y-133560229D01*
X105257406Y-133489422D01*
X105262589Y-133471771D01*
X105304971Y-133358718D01*
X105304973Y-133358712D01*
X105307745Y-133351316D01*
X105314500Y-133289134D01*
X105314500Y-132987592D01*
X105334502Y-132919471D01*
X105388158Y-132872978D01*
X105458432Y-132862874D01*
X105523012Y-132892368D01*
X105551019Y-132927082D01*
X105552236Y-132929304D01*
X105555385Y-132937705D01*
X105642739Y-133054261D01*
X105759295Y-133141615D01*
X105767704Y-133144767D01*
X105767705Y-133144768D01*
X105849320Y-133175364D01*
X105906085Y-133218005D01*
X105930785Y-133284567D01*
X105915578Y-133353916D01*
X105911010Y-133361588D01*
X105824235Y-133496238D01*
X105821826Y-133502858D01*
X105821824Y-133502861D01*
X105771789Y-133640332D01*
X105762197Y-133666685D01*
X105739463Y-133846640D01*
X105757163Y-134027160D01*
X105814418Y-134199273D01*
X105818065Y-134205295D01*
X105818066Y-134205297D01*
X105904513Y-134348038D01*
X105908380Y-134354424D01*
X105913269Y-134359487D01*
X105913270Y-134359488D01*
X105928357Y-134375111D01*
X106034382Y-134484902D01*
X106083760Y-134517214D01*
X106135423Y-134551021D01*
X106186159Y-134584222D01*
X106192763Y-134586678D01*
X106192765Y-134586679D01*
X106349558Y-134644990D01*
X106349560Y-134644990D01*
X106356168Y-134647448D01*
X106439995Y-134658633D01*
X106528980Y-134670507D01*
X106528984Y-134670507D01*
X106535961Y-134671438D01*
X106542972Y-134670800D01*
X106542976Y-134670800D01*
X106685459Y-134657832D01*
X106716600Y-134654998D01*
X106723302Y-134652820D01*
X106723304Y-134652820D01*
X106882409Y-134601124D01*
X106882412Y-134601123D01*
X106889108Y-134598947D01*
X106995885Y-134535295D01*
X107038860Y-134509677D01*
X107038862Y-134509676D01*
X107044912Y-134506069D01*
X107176266Y-134380982D01*
X107276643Y-134229902D01*
X107331799Y-134084704D01*
X107338555Y-134066920D01*
X107338556Y-134066918D01*
X107341055Y-134060338D01*
X107342035Y-134053366D01*
X107365748Y-133884639D01*
X107365748Y-133884636D01*
X107366299Y-133880717D01*
X107366616Y-133858000D01*
X107346397Y-133677745D01*
X107342546Y-133666685D01*
X107323109Y-133610871D01*
X107316100Y-133569434D01*
X107316100Y-133325500D01*
X107336102Y-133257379D01*
X107389758Y-133210886D01*
X107442100Y-133199500D01*
X107454134Y-133199500D01*
X107516316Y-133192745D01*
X107652705Y-133141615D01*
X107673173Y-133126275D01*
X107739679Y-133101426D01*
X107748739Y-133101100D01*
X107777322Y-133101100D01*
X107787874Y-133101598D01*
X107795128Y-133103219D01*
X107860595Y-133101162D01*
X107864552Y-133101100D01*
X108289500Y-133101100D01*
X108357621Y-133121102D01*
X108404114Y-133174758D01*
X108415500Y-133227100D01*
X108415500Y-133310134D01*
X108422255Y-133372316D01*
X108473385Y-133508705D01*
X108560739Y-133625261D01*
X108677295Y-133712615D01*
X108813684Y-133763745D01*
X108875866Y-133770500D01*
X110072134Y-133770500D01*
X110134316Y-133763745D01*
X110270705Y-133712615D01*
X110387261Y-133625261D01*
X110474615Y-133508705D01*
X110525745Y-133372316D01*
X110532500Y-133310134D01*
X110532500Y-132257501D01*
X110552502Y-132189380D01*
X110606158Y-132142887D01*
X110676432Y-132132783D01*
X110741012Y-132162277D01*
G37*
%TD.AperFunction*%
%TA.AperFunction,Conductor*%
G36*
X113345582Y-131241502D02*
G01*
X113392075Y-131295158D01*
X113402179Y-131365432D01*
X113372685Y-131430012D01*
X113343764Y-131454644D01*
X113212193Y-131536063D01*
X113200792Y-131545099D01*
X113119570Y-131626462D01*
X113057287Y-131660541D01*
X112986467Y-131655538D01*
X112941380Y-131626617D01*
X112858488Y-131543870D01*
X112858483Y-131543866D01*
X112853303Y-131538695D01*
X112846065Y-131534233D01*
X112717136Y-131454760D01*
X112669643Y-131401988D01*
X112658219Y-131331916D01*
X112686493Y-131266792D01*
X112745487Y-131227293D01*
X112783252Y-131221500D01*
X113277461Y-131221500D01*
X113345582Y-131241502D01*
G37*
%TD.AperFunction*%
%TA.AperFunction,Conductor*%
G36*
X117934517Y-131220631D02*
G01*
X117941328Y-131221000D01*
X118073160Y-131221000D01*
X118141281Y-131241002D01*
X118187774Y-131294658D01*
X118198559Y-131334704D01*
X118203163Y-131381662D01*
X118227441Y-131454644D01*
X118240678Y-131494435D01*
X118243201Y-131565387D01*
X118206964Y-131626439D01*
X118143472Y-131658208D01*
X118072884Y-131650608D01*
X118036351Y-131626193D01*
X118035261Y-131624739D01*
X117918705Y-131537385D01*
X117782316Y-131486255D01*
X117720134Y-131479500D01*
X117720225Y-131478664D01*
X117656715Y-131456209D01*
X117613199Y-131400112D01*
X117606920Y-131329393D01*
X117612694Y-131309315D01*
X117615186Y-131302755D01*
X117658076Y-131246177D01*
X117724745Y-131221769D01*
X117732974Y-131221500D01*
X117834134Y-131221500D01*
X117874720Y-131217091D01*
X117901933Y-131217091D01*
X117934517Y-131220631D01*
G37*
%TD.AperFunction*%
%TA.AperFunction,Conductor*%
G36*
X106228612Y-126649877D02*
G01*
X106235195Y-126656006D01*
X107967995Y-128388807D01*
X108002021Y-128451119D01*
X108004900Y-128477902D01*
X108004900Y-129264767D01*
X107984898Y-129332888D01*
X107931242Y-129379381D01*
X107860968Y-129389485D01*
X107796388Y-129359991D01*
X107778072Y-129340330D01*
X107774283Y-129335274D01*
X107761724Y-129322715D01*
X107659649Y-129246214D01*
X107644054Y-129237676D01*
X107523606Y-129192522D01*
X107508351Y-129188895D01*
X107457486Y-129183369D01*
X107450672Y-129183000D01*
X106924115Y-129183000D01*
X106908876Y-129187475D01*
X106907671Y-129188865D01*
X106906000Y-129196548D01*
X106906000Y-129706500D01*
X106885998Y-129774621D01*
X106832342Y-129821114D01*
X106780000Y-129832500D01*
X106632000Y-129832500D01*
X106563879Y-129812498D01*
X106517386Y-129758842D01*
X106506000Y-129706500D01*
X106506000Y-129201116D01*
X106501525Y-129185877D01*
X106500135Y-129184672D01*
X106492452Y-129183001D01*
X106146100Y-129183001D01*
X106077979Y-129162999D01*
X106031486Y-129109343D01*
X106020100Y-129057001D01*
X106020100Y-126745101D01*
X106040102Y-126676980D01*
X106093758Y-126630487D01*
X106164032Y-126620383D01*
X106228612Y-126649877D01*
G37*
%TD.AperFunction*%
%TA.AperFunction,Conductor*%
G36*
X128973621Y-116098502D02*
G01*
X129020114Y-116152158D01*
X129031500Y-116204500D01*
X129031500Y-125858022D01*
X129011498Y-125926143D01*
X128957842Y-125972636D01*
X128887568Y-125982740D01*
X128839383Y-125965281D01*
X128819759Y-125953185D01*
X128806576Y-125947037D01*
X128652290Y-125895862D01*
X128638914Y-125892995D01*
X128544562Y-125883328D01*
X128538145Y-125883000D01*
X128524502Y-125883000D01*
X128456381Y-125862998D01*
X128409888Y-125809342D01*
X128399784Y-125739068D01*
X128429278Y-125674488D01*
X128435327Y-125667984D01*
X128435738Y-125667573D01*
X128444751Y-125656160D01*
X128529816Y-125518157D01*
X128535963Y-125504976D01*
X128587138Y-125350690D01*
X128590005Y-125337314D01*
X128599672Y-125242962D01*
X128600000Y-125236546D01*
X128600000Y-125011515D01*
X128595525Y-124996276D01*
X128594135Y-124995071D01*
X128586452Y-124993400D01*
X127364000Y-124993400D01*
X127295879Y-124973398D01*
X127249386Y-124919742D01*
X127238000Y-124867400D01*
X127238000Y-124611400D01*
X127258002Y-124543279D01*
X127311658Y-124496786D01*
X127364000Y-124485400D01*
X128581884Y-124485400D01*
X128597123Y-124480925D01*
X128598328Y-124479535D01*
X128599999Y-124471852D01*
X128599999Y-124242305D01*
X128599662Y-124235786D01*
X128589743Y-124140194D01*
X128586851Y-124126800D01*
X128535412Y-123972616D01*
X128529239Y-123959438D01*
X128443937Y-123821593D01*
X128434901Y-123810192D01*
X128320171Y-123695661D01*
X128308760Y-123686649D01*
X128170757Y-123601584D01*
X128157576Y-123595437D01*
X128003290Y-123544262D01*
X127989914Y-123541395D01*
X127895562Y-123531728D01*
X127889145Y-123531400D01*
X127609559Y-123531400D01*
X127541438Y-123511398D01*
X127494945Y-123457742D01*
X127484841Y-123387468D01*
X127514335Y-123322888D01*
X127580038Y-123282907D01*
X127721537Y-123248806D01*
X127732832Y-123244917D01*
X127914382Y-123162371D01*
X127924724Y-123156424D01*
X128087397Y-123041032D01*
X128096425Y-123033239D01*
X128234342Y-122889169D01*
X128241738Y-122879804D01*
X128349921Y-122712259D01*
X128355417Y-122701655D01*
X128429961Y-122516688D01*
X128433355Y-122505230D01*
X128471857Y-122308072D01*
X128472934Y-122299209D01*
X128473000Y-122296500D01*
X128473000Y-122192115D01*
X128468525Y-122176876D01*
X128467135Y-122175671D01*
X128459452Y-122174000D01*
X127237000Y-122174000D01*
X127168879Y-122153998D01*
X127122386Y-122100342D01*
X127111000Y-122048000D01*
X127111000Y-121647885D01*
X127619000Y-121647885D01*
X127623475Y-121663124D01*
X127624865Y-121664329D01*
X127632548Y-121666000D01*
X128454885Y-121666000D01*
X128470124Y-121661525D01*
X128471329Y-121660135D01*
X128473000Y-121652452D01*
X128473000Y-121595168D01*
X128472715Y-121589192D01*
X128458529Y-121440506D01*
X128456270Y-121428772D01*
X128400128Y-121237401D01*
X128395698Y-121226325D01*
X128304381Y-121049022D01*
X128297931Y-121038976D01*
X128174738Y-120882143D01*
X128166501Y-120873494D01*
X128015877Y-120742788D01*
X128006153Y-120735853D01*
X127833533Y-120635990D01*
X127822669Y-120631016D01*
X127634273Y-120565593D01*
X127633284Y-120565352D01*
X127622992Y-120566820D01*
X127619000Y-120580385D01*
X127619000Y-121647885D01*
X127111000Y-121647885D01*
X127111000Y-120584598D01*
X127107027Y-120571067D01*
X127097601Y-120569712D01*
X127008463Y-120591194D01*
X126997168Y-120595083D01*
X126815618Y-120677629D01*
X126805276Y-120683576D01*
X126642603Y-120798968D01*
X126633575Y-120806761D01*
X126546465Y-120897757D01*
X126484910Y-120933133D01*
X126414000Y-120929614D01*
X126356250Y-120888317D01*
X126348315Y-120876947D01*
X126313478Y-120820652D01*
X126314941Y-120819746D01*
X126291715Y-120762343D01*
X126304893Y-120692580D01*
X126328004Y-120660807D01*
X126652453Y-120336359D01*
X127023772Y-119965040D01*
X127086084Y-119931015D01*
X127101446Y-119928655D01*
X127115552Y-119927371D01*
X127163600Y-119922998D01*
X127189770Y-119914495D01*
X127329409Y-119869124D01*
X127329412Y-119869123D01*
X127336108Y-119866947D01*
X127432513Y-119809478D01*
X127485860Y-119777677D01*
X127485862Y-119777676D01*
X127491912Y-119774069D01*
X127623266Y-119648982D01*
X127723643Y-119497902D01*
X127788055Y-119328338D01*
X127809032Y-119179079D01*
X127812748Y-119152639D01*
X127812748Y-119152636D01*
X127813299Y-119148717D01*
X127813616Y-119126000D01*
X127793397Y-118945745D01*
X127790993Y-118938842D01*
X127736064Y-118781106D01*
X127736062Y-118781103D01*
X127733745Y-118774448D01*
X127706703Y-118731172D01*
X127641359Y-118626598D01*
X127637626Y-118620624D01*
X127541575Y-118523900D01*
X127514778Y-118496915D01*
X127514774Y-118496912D01*
X127509815Y-118491918D01*
X127498697Y-118484862D01*
X127429644Y-118441040D01*
X127356666Y-118394727D01*
X127315962Y-118380233D01*
X127192425Y-118336243D01*
X127192420Y-118336242D01*
X127185790Y-118333881D01*
X127178802Y-118333048D01*
X127178799Y-118333047D01*
X127055698Y-118318368D01*
X127005680Y-118312404D01*
X126998677Y-118313140D01*
X126998676Y-118313140D01*
X126832288Y-118330628D01*
X126832286Y-118330629D01*
X126825288Y-118331364D01*
X126653579Y-118389818D01*
X126614392Y-118413926D01*
X126505095Y-118481166D01*
X126505092Y-118481168D01*
X126499088Y-118484862D01*
X126494053Y-118489793D01*
X126494050Y-118489795D01*
X126409794Y-118572305D01*
X126369493Y-118611771D01*
X126271235Y-118764238D01*
X126268826Y-118770858D01*
X126268824Y-118770861D01*
X126257450Y-118802111D01*
X126209197Y-118934685D01*
X126201893Y-118992498D01*
X126197352Y-119028444D01*
X126168970Y-119093521D01*
X126161441Y-119101747D01*
X125031195Y-120231993D01*
X124968883Y-120266019D01*
X124898068Y-120260954D01*
X124841232Y-120218407D01*
X124816421Y-120151887D01*
X124816100Y-120142898D01*
X124816100Y-118795902D01*
X124836102Y-118727781D01*
X124853005Y-118706806D01*
X125118772Y-118441040D01*
X125181084Y-118407015D01*
X125196446Y-118404655D01*
X125210199Y-118403403D01*
X125258600Y-118398998D01*
X125316353Y-118380233D01*
X125424409Y-118345124D01*
X125424412Y-118345123D01*
X125431108Y-118342947D01*
X125586912Y-118250069D01*
X125718266Y-118124982D01*
X125818643Y-117973902D01*
X125883055Y-117804338D01*
X125885880Y-117784238D01*
X125907748Y-117628639D01*
X125907748Y-117628636D01*
X125908299Y-117624717D01*
X125908616Y-117602000D01*
X125888397Y-117421745D01*
X125884921Y-117411764D01*
X125831064Y-117257106D01*
X125831062Y-117257103D01*
X125828745Y-117250448D01*
X125732626Y-117096624D01*
X125718941Y-117082843D01*
X125609778Y-116972915D01*
X125609774Y-116972912D01*
X125604815Y-116967918D01*
X125593697Y-116960862D01*
X125501956Y-116902642D01*
X125451666Y-116870727D01*
X125382351Y-116846045D01*
X125287425Y-116812243D01*
X125287420Y-116812242D01*
X125280790Y-116809881D01*
X125273802Y-116809048D01*
X125273799Y-116809047D01*
X125150698Y-116794368D01*
X125100680Y-116788404D01*
X125093677Y-116789140D01*
X125093676Y-116789140D01*
X124927288Y-116806628D01*
X124927286Y-116806629D01*
X124920288Y-116807364D01*
X124748579Y-116865818D01*
X124711761Y-116888469D01*
X124600095Y-116957166D01*
X124600092Y-116957168D01*
X124594088Y-116960862D01*
X124589053Y-116965793D01*
X124589050Y-116965795D01*
X124469759Y-117082614D01*
X124464493Y-117087771D01*
X124366235Y-117240238D01*
X124363826Y-117246858D01*
X124363824Y-117246861D01*
X124344801Y-117299127D01*
X124304197Y-117410685D01*
X124296875Y-117468642D01*
X124292352Y-117504444D01*
X124263970Y-117569521D01*
X124256441Y-117577747D01*
X123828110Y-118006078D01*
X123820295Y-118013190D01*
X123814017Y-118017174D01*
X123808591Y-118022952D01*
X123769170Y-118064931D01*
X123766415Y-118067773D01*
X123747453Y-118086735D01*
X123745027Y-118089862D01*
X123744462Y-118090503D01*
X123737494Y-118098661D01*
X123708496Y-118129542D01*
X123699272Y-118146319D01*
X123688430Y-118162825D01*
X123684267Y-118168193D01*
X123626715Y-118209766D01*
X123555823Y-118213623D01*
X123494100Y-118178542D01*
X123461141Y-118115659D01*
X123458700Y-118090977D01*
X123458700Y-117822778D01*
X123459198Y-117812226D01*
X123460819Y-117804972D01*
X123458762Y-117739505D01*
X123458700Y-117735548D01*
X123458700Y-117708717D01*
X123458204Y-117704790D01*
X123458147Y-117703884D01*
X123457308Y-117693235D01*
X123456636Y-117671829D01*
X123455978Y-117650901D01*
X123450636Y-117632514D01*
X123446628Y-117613157D01*
X123445223Y-117602037D01*
X123444229Y-117594168D01*
X123428635Y-117554780D01*
X123424793Y-117543557D01*
X123415185Y-117510490D01*
X123415184Y-117510488D01*
X123412972Y-117502874D01*
X123403225Y-117486393D01*
X123394533Y-117468651D01*
X123387484Y-117450846D01*
X123369686Y-117426348D01*
X123362581Y-117416569D01*
X123356065Y-117406649D01*
X123338543Y-117377022D01*
X123334505Y-117370194D01*
X123320978Y-117356667D01*
X123308137Y-117341633D01*
X123301540Y-117332553D01*
X123301539Y-117332552D01*
X123296879Y-117326138D01*
X123264227Y-117299126D01*
X123255448Y-117291137D01*
X123074405Y-117110094D01*
X123040379Y-117047782D01*
X123037500Y-117020999D01*
X123037500Y-116314600D01*
X123037163Y-116311348D01*
X123027426Y-116217503D01*
X123040291Y-116147682D01*
X123088862Y-116095900D01*
X123152753Y-116078500D01*
X128905500Y-116078500D01*
X128973621Y-116098502D01*
G37*
%TD.AperFunction*%
%TA.AperFunction,Conductor*%
G36*
X116971324Y-123876828D02*
G01*
X116986565Y-123886623D01*
X117087295Y-123962116D01*
X117089295Y-123963615D01*
X117089079Y-123963904D01*
X117135139Y-124010065D01*
X117137353Y-124015418D01*
X117141865Y-124019328D01*
X117149548Y-124020999D01*
X117180670Y-124020999D01*
X117187488Y-124020630D01*
X117220067Y-124017091D01*
X117247280Y-124017091D01*
X117287866Y-124021500D01*
X117834134Y-124021500D01*
X117837529Y-124021131D01*
X117837533Y-124021131D01*
X117863531Y-124018307D01*
X117872394Y-124017344D01*
X117899606Y-124017344D01*
X117908469Y-124018307D01*
X117934467Y-124021131D01*
X117934471Y-124021131D01*
X117937866Y-124021500D01*
X118484134Y-124021500D01*
X118487529Y-124021131D01*
X118487533Y-124021131D01*
X118513531Y-124018307D01*
X118522394Y-124017344D01*
X118549606Y-124017344D01*
X118558469Y-124018307D01*
X118584467Y-124021131D01*
X118584471Y-124021131D01*
X118587866Y-124021500D01*
X119134134Y-124021500D01*
X119137529Y-124021131D01*
X119137533Y-124021131D01*
X119163531Y-124018307D01*
X119172394Y-124017344D01*
X119199606Y-124017344D01*
X119208469Y-124018307D01*
X119234467Y-124021131D01*
X119234471Y-124021131D01*
X119237866Y-124021500D01*
X119540498Y-124021500D01*
X119608619Y-124041502D01*
X119655112Y-124095158D01*
X119665216Y-124165432D01*
X119635722Y-124230012D01*
X119629593Y-124236595D01*
X119142793Y-124723395D01*
X119080481Y-124757421D01*
X119053698Y-124760300D01*
X117317161Y-124760300D01*
X117249040Y-124740298D01*
X117245974Y-124738090D01*
X117244215Y-124736318D01*
X117238331Y-124732584D01*
X117238327Y-124732581D01*
X117138034Y-124668934D01*
X117091066Y-124639127D01*
X117056900Y-124626961D01*
X116926825Y-124580643D01*
X116926820Y-124580642D01*
X116920190Y-124578281D01*
X116913202Y-124577448D01*
X116913199Y-124577447D01*
X116790098Y-124562768D01*
X116740080Y-124556804D01*
X116733077Y-124557540D01*
X116733076Y-124557540D01*
X116566688Y-124575028D01*
X116566686Y-124575029D01*
X116559688Y-124575764D01*
X116387979Y-124634218D01*
X116353961Y-124655146D01*
X116239495Y-124725566D01*
X116239492Y-124725568D01*
X116233488Y-124729262D01*
X116228453Y-124734193D01*
X116228450Y-124734195D01*
X116118909Y-124841466D01*
X116103893Y-124856171D01*
X116016004Y-124992549D01*
X115962291Y-125038972D01*
X115892004Y-125048987D01*
X115827461Y-125019412D01*
X115820999Y-125013387D01*
X115044207Y-124236595D01*
X115010181Y-124174283D01*
X115015246Y-124103468D01*
X115057793Y-124046632D01*
X115124313Y-124021821D01*
X115133302Y-124021500D01*
X115234134Y-124021500D01*
X115237529Y-124021131D01*
X115237533Y-124021131D01*
X115263531Y-124018307D01*
X115272394Y-124017344D01*
X115299606Y-124017344D01*
X115308469Y-124018307D01*
X115334467Y-124021131D01*
X115334471Y-124021131D01*
X115337866Y-124021500D01*
X115884134Y-124021500D01*
X115887529Y-124021131D01*
X115887533Y-124021131D01*
X115913531Y-124018307D01*
X115922394Y-124017344D01*
X115949606Y-124017344D01*
X115958469Y-124018307D01*
X115984467Y-124021131D01*
X115984471Y-124021131D01*
X115987866Y-124021500D01*
X116534134Y-124021500D01*
X116574720Y-124017091D01*
X116601933Y-124017091D01*
X116634517Y-124020631D01*
X116641328Y-124021000D01*
X116667885Y-124021000D01*
X116683124Y-124016525D01*
X116705389Y-123990830D01*
X116705918Y-123991288D01*
X116712682Y-123978900D01*
X116732839Y-123963793D01*
X116732705Y-123963615D01*
X116835435Y-123886623D01*
X116901941Y-123861775D01*
X116971324Y-123876828D01*
G37*
%TD.AperFunction*%
%TA.AperFunction,Conductor*%
G36*
X109315121Y-118784144D02*
G01*
X109361614Y-118837800D01*
X109373000Y-118890142D01*
X109373000Y-119107885D01*
X109377475Y-119123124D01*
X109378865Y-119124329D01*
X109386548Y-119126000D01*
X110596500Y-119126000D01*
X110664621Y-119146002D01*
X110711114Y-119199658D01*
X110722500Y-119252000D01*
X110722500Y-119508000D01*
X110702498Y-119576121D01*
X110648842Y-119622614D01*
X110596500Y-119634000D01*
X109391116Y-119634000D01*
X109375877Y-119638475D01*
X109374672Y-119639865D01*
X109373001Y-119647548D01*
X109373001Y-119786900D01*
X109352999Y-119855021D01*
X109299343Y-119901514D01*
X109247001Y-119912900D01*
X108787677Y-119912900D01*
X108777125Y-119912402D01*
X108769871Y-119910781D01*
X108707451Y-119912742D01*
X108704405Y-119912838D01*
X108700448Y-119912900D01*
X108673617Y-119912900D01*
X108669681Y-119913397D01*
X108668779Y-119913454D01*
X108658125Y-119914292D01*
X108651646Y-119914495D01*
X108582932Y-119896636D01*
X108534782Y-119844463D01*
X108521700Y-119788557D01*
X108521700Y-119044248D01*
X108541702Y-118976127D01*
X108595358Y-118929634D01*
X108664363Y-118919355D01*
X108694961Y-118923438D01*
X108701972Y-118922800D01*
X108701976Y-118922800D01*
X108844944Y-118909788D01*
X108875600Y-118906998D01*
X108882302Y-118904820D01*
X108882304Y-118904820D01*
X109041409Y-118853124D01*
X109041412Y-118853123D01*
X109048108Y-118850947D01*
X109163913Y-118781913D01*
X109228431Y-118764142D01*
X109247000Y-118764142D01*
X109315121Y-118784144D01*
G37*
%TD.AperFunction*%
%TA.AperFunction,Conductor*%
G36*
X113887121Y-116443502D02*
G01*
X113933614Y-116497158D01*
X113945000Y-116549500D01*
X113945000Y-116567885D01*
X113949475Y-116583124D01*
X113950865Y-116584329D01*
X113958548Y-116586000D01*
X115168500Y-116586000D01*
X115236621Y-116606002D01*
X115283114Y-116659658D01*
X115294500Y-116712000D01*
X115294500Y-116968000D01*
X115274498Y-117036121D01*
X115220842Y-117082614D01*
X115168500Y-117094000D01*
X113963116Y-117094000D01*
X113947877Y-117098475D01*
X113946672Y-117099865D01*
X113945001Y-117107548D01*
X113945001Y-117362095D01*
X113945338Y-117368614D01*
X113955257Y-117464206D01*
X113958149Y-117477600D01*
X114009588Y-117631784D01*
X114015762Y-117644962D01*
X114099324Y-117779997D01*
X114118162Y-117848449D01*
X114097001Y-117916218D01*
X114042560Y-117961790D01*
X113992180Y-117972300D01*
X113643382Y-117972300D01*
X113575261Y-117952298D01*
X113554287Y-117935395D01*
X113351000Y-117732108D01*
X113343890Y-117724295D01*
X113339906Y-117718017D01*
X113292149Y-117673170D01*
X113289307Y-117670415D01*
X113270345Y-117651453D01*
X113267218Y-117649027D01*
X113266577Y-117648462D01*
X113258417Y-117641493D01*
X113255705Y-117638946D01*
X113227538Y-117612496D01*
X113210761Y-117603272D01*
X113194248Y-117592425D01*
X113185382Y-117585548D01*
X113185377Y-117585545D01*
X113179114Y-117580687D01*
X113171838Y-117577539D01*
X113171834Y-117577536D01*
X113170338Y-117576889D01*
X113169352Y-117576069D01*
X113165017Y-117573505D01*
X113165431Y-117572806D01*
X113115764Y-117531478D01*
X113094405Y-117463770D01*
X113096214Y-117444904D01*
X113095797Y-117444861D01*
X113099299Y-117410685D01*
X113106500Y-117340400D01*
X113106500Y-116549500D01*
X113126502Y-116481379D01*
X113180158Y-116434886D01*
X113232500Y-116423500D01*
X113819000Y-116423500D01*
X113887121Y-116443502D01*
G37*
%TD.AperFunction*%
%TA.AperFunction,Conductor*%
G36*
X118381413Y-116852663D02*
G01*
X118421168Y-116867448D01*
X118504995Y-116878633D01*
X118593980Y-116890507D01*
X118593984Y-116890507D01*
X118600961Y-116891438D01*
X118607972Y-116890800D01*
X118607975Y-116890800D01*
X118620948Y-116889619D01*
X118633581Y-116888469D01*
X118703233Y-116902214D01*
X118754398Y-116951434D01*
X118771001Y-117013950D01*
X118771001Y-117328499D01*
X118750999Y-117396620D01*
X118697343Y-117443113D01*
X118627069Y-117453217D01*
X118562489Y-117423723D01*
X118555906Y-117417594D01*
X118248405Y-117110093D01*
X118214379Y-117047781D01*
X118211500Y-117020998D01*
X118211500Y-116970763D01*
X118231502Y-116902642D01*
X118285158Y-116856149D01*
X118355432Y-116846045D01*
X118381413Y-116852663D01*
G37*
%TD.AperFunction*%
%TA.AperFunction,NonConductor*%
G36*
X108718620Y-116443502D02*
G01*
X108739594Y-116460405D01*
X108852595Y-116573406D01*
X108886621Y-116635718D01*
X108889500Y-116662501D01*
X108889500Y-117174975D01*
X108869498Y-117243096D01*
X108815842Y-117289589D01*
X108748582Y-117300089D01*
X108717680Y-117296404D01*
X108710677Y-117297140D01*
X108710676Y-117297140D01*
X108544288Y-117314628D01*
X108544286Y-117314629D01*
X108537288Y-117315364D01*
X108392707Y-117364583D01*
X108376225Y-117370194D01*
X108365579Y-117373818D01*
X108310520Y-117407690D01*
X108242021Y-117426348D01*
X108174307Y-117405009D01*
X108128879Y-117350449D01*
X108118500Y-117300372D01*
X108118500Y-116672600D01*
X108107526Y-116566835D01*
X108109446Y-116566636D01*
X108113932Y-116505281D01*
X108156568Y-116448513D01*
X108223127Y-116423807D01*
X108231918Y-116423500D01*
X108650499Y-116423500D01*
X108718620Y-116443502D01*
G37*
%TD.AperFunction*%
%TA.AperFunction,NonConductor*%
G36*
X120062621Y-116606002D02*
G01*
X120109114Y-116659658D01*
X120120500Y-116712000D01*
X120120500Y-118054884D01*
X120124975Y-118070123D01*
X120126365Y-118071328D01*
X120134048Y-118072999D01*
X120251095Y-118072999D01*
X120257614Y-118072662D01*
X120353206Y-118062743D01*
X120366600Y-118059851D01*
X120520784Y-118008412D01*
X120533962Y-118002239D01*
X120671807Y-117916937D01*
X120683208Y-117907901D01*
X120797738Y-117793172D01*
X120804794Y-117784238D01*
X120862712Y-117743177D01*
X120933635Y-117739947D01*
X120995046Y-117775574D01*
X121001846Y-117783407D01*
X121005522Y-117789348D01*
X121130697Y-117914305D01*
X121136927Y-117918145D01*
X121136928Y-117918146D01*
X121273352Y-118002239D01*
X121281262Y-118007115D01*
X121361005Y-118033564D01*
X121442611Y-118060632D01*
X121442613Y-118060632D01*
X121449139Y-118062797D01*
X121455975Y-118063497D01*
X121455978Y-118063498D01*
X121497705Y-118067773D01*
X121553600Y-118073500D01*
X121556819Y-118073500D01*
X121560028Y-118073664D01*
X121627039Y-118097115D01*
X121670734Y-118153073D01*
X121677240Y-118223770D01*
X121644491Y-118286763D01*
X121582885Y-118322050D01*
X121553600Y-118325500D01*
X121398866Y-118325500D01*
X121336684Y-118332255D01*
X121200295Y-118383385D01*
X121083739Y-118470739D01*
X121078358Y-118477919D01*
X121072008Y-118484269D01*
X121069971Y-118482232D01*
X121024838Y-118515980D01*
X120980870Y-118523900D01*
X120820677Y-118523900D01*
X120810125Y-118523402D01*
X120802871Y-118521781D01*
X120740760Y-118523733D01*
X120737404Y-118523838D01*
X120733447Y-118523900D01*
X119714401Y-118523900D01*
X119646280Y-118503898D01*
X119625306Y-118486995D01*
X119426406Y-118288095D01*
X119392380Y-118225783D01*
X119397445Y-118154968D01*
X119439992Y-118098132D01*
X119506512Y-118073321D01*
X119515501Y-118073000D01*
X119594385Y-118073000D01*
X119609624Y-118068525D01*
X119610829Y-118067135D01*
X119612500Y-118059452D01*
X119612500Y-116712000D01*
X119632502Y-116643879D01*
X119686158Y-116597386D01*
X119738500Y-116586000D01*
X119994500Y-116586000D01*
X120062621Y-116606002D01*
G37*
%TD.AperFunction*%
%TA.AperFunction,NonConductor*%
G36*
X107243621Y-118751502D02*
G01*
X107290114Y-118805158D01*
X107301500Y-118857500D01*
X107301500Y-118886500D01*
X107281498Y-118954621D01*
X107227842Y-119001114D01*
X107175500Y-119012500D01*
X106730426Y-119012500D01*
X106662305Y-118992498D01*
X106615812Y-118938842D01*
X106604438Y-118884740D01*
X106604561Y-118875961D01*
X106604561Y-118875957D01*
X106604616Y-118872000D01*
X106604174Y-118868064D01*
X106603981Y-118864111D01*
X106605885Y-118864018D01*
X106616854Y-118801610D01*
X106664997Y-118749430D01*
X106729780Y-118731500D01*
X107175500Y-118731500D01*
X107243621Y-118751502D01*
G37*
%TD.AperFunction*%
%TA.AperFunction,NonConductor*%
G36*
X103062613Y-118619101D02*
G01*
X103137262Y-118665115D01*
X103217005Y-118691564D01*
X103298611Y-118718632D01*
X103298613Y-118718632D01*
X103305139Y-118720797D01*
X103311975Y-118721497D01*
X103311978Y-118721498D01*
X103355031Y-118725909D01*
X103409600Y-118731500D01*
X104419900Y-118731500D01*
X104488021Y-118751502D01*
X104534514Y-118805158D01*
X104545900Y-118857500D01*
X104545900Y-118857598D01*
X104525898Y-118925719D01*
X104508995Y-118946693D01*
X104480093Y-118975595D01*
X104417781Y-119009621D01*
X104390998Y-119012500D01*
X103409600Y-119012500D01*
X103406354Y-119012837D01*
X103406350Y-119012837D01*
X103310693Y-119022762D01*
X103310689Y-119022763D01*
X103303835Y-119023474D01*
X103297299Y-119025655D01*
X103297297Y-119025655D01*
X103170327Y-119068016D01*
X103136055Y-119079450D01*
X103062802Y-119124780D01*
X102994351Y-119143618D01*
X102926582Y-119122457D01*
X102881010Y-119068016D01*
X102870500Y-119017636D01*
X102870500Y-118726362D01*
X102890502Y-118658241D01*
X102944158Y-118611748D01*
X103014432Y-118601644D01*
X103062613Y-118619101D01*
G37*
%TD.AperFunction*%
%TA.AperFunction,NonConductor*%
G36*
X118230082Y-120553999D02*
G01*
X118269255Y-120591520D01*
X118270930Y-120590230D01*
X118275229Y-120595813D01*
X118278879Y-120601839D01*
X118283775Y-120606909D01*
X118287433Y-120610697D01*
X118320365Y-120673593D01*
X118314065Y-120744310D01*
X118307211Y-120758923D01*
X118289235Y-120791621D01*
X118285428Y-120806448D01*
X118284475Y-120810160D01*
X118278074Y-120828858D01*
X118270468Y-120846434D01*
X118265274Y-120879229D01*
X118263842Y-120888273D01*
X118261435Y-120899896D01*
X118250900Y-120940925D01*
X118250900Y-120960063D01*
X118249349Y-120979773D01*
X118246354Y-120998683D01*
X118247100Y-121006574D01*
X118250341Y-121040860D01*
X118250900Y-121052718D01*
X118250900Y-121128500D01*
X118230898Y-121196621D01*
X118177242Y-121243114D01*
X118124900Y-121254500D01*
X117937866Y-121254500D01*
X117934471Y-121254869D01*
X117934467Y-121254869D01*
X117908469Y-121257693D01*
X117899606Y-121258656D01*
X117872394Y-121258656D01*
X117863531Y-121257693D01*
X117837533Y-121254869D01*
X117837529Y-121254869D01*
X117834134Y-121254500D01*
X117287866Y-121254500D01*
X117247280Y-121258909D01*
X117220067Y-121258909D01*
X117187483Y-121255369D01*
X117180672Y-121255000D01*
X117154115Y-121255000D01*
X117138876Y-121259475D01*
X117116611Y-121285170D01*
X117116082Y-121284712D01*
X117109318Y-121297100D01*
X117089161Y-121312207D01*
X117089295Y-121312385D01*
X116986565Y-121389377D01*
X116920059Y-121414225D01*
X116850676Y-121399172D01*
X116835435Y-121389377D01*
X116824791Y-121381400D01*
X116732705Y-121312385D01*
X116732921Y-121312096D01*
X116686861Y-121265935D01*
X116684647Y-121260582D01*
X116680135Y-121256672D01*
X116672452Y-121255001D01*
X116641330Y-121255001D01*
X116634512Y-121255370D01*
X116601933Y-121258909D01*
X116574720Y-121258909D01*
X116534134Y-121254500D01*
X116211122Y-121254500D01*
X116143001Y-121234498D01*
X116105852Y-121195942D01*
X116105800Y-121195982D01*
X116105428Y-121195503D01*
X116102670Y-121192640D01*
X116096906Y-121182894D01*
X116083374Y-121169362D01*
X116070532Y-121154327D01*
X116059279Y-121138838D01*
X116031169Y-121115584D01*
X115991432Y-121056751D01*
X115989810Y-120985773D01*
X116026820Y-120925185D01*
X116090710Y-120894225D01*
X116111486Y-120892500D01*
X117645134Y-120892500D01*
X117707316Y-120885745D01*
X117843705Y-120834615D01*
X117960261Y-120747261D01*
X118047615Y-120630705D01*
X118051532Y-120620257D01*
X118052831Y-120618528D01*
X118055077Y-120614425D01*
X118055669Y-120614749D01*
X118094172Y-120563493D01*
X118160733Y-120538792D01*
X118230082Y-120553999D01*
G37*
%TD.AperFunction*%
%TA.AperFunction,NonConductor*%
G36*
X121099297Y-120814390D02*
G01*
X121128263Y-120830630D01*
X121200295Y-120884615D01*
X121336684Y-120935745D01*
X121398866Y-120942500D01*
X122595134Y-120942500D01*
X122598526Y-120942132D01*
X122598536Y-120942131D01*
X122639105Y-120937724D01*
X122708987Y-120950253D01*
X122761002Y-120998574D01*
X122778711Y-121062987D01*
X122778711Y-122151397D01*
X122758709Y-122219518D01*
X122705053Y-122266011D01*
X122634779Y-122276115D01*
X122623937Y-122274068D01*
X122620430Y-122273246D01*
X122613790Y-122270881D01*
X122433680Y-122249404D01*
X122426677Y-122250140D01*
X122426676Y-122250140D01*
X122260288Y-122267628D01*
X122260286Y-122267629D01*
X122253288Y-122268364D01*
X122081579Y-122326818D01*
X122075575Y-122330512D01*
X121933095Y-122418166D01*
X121933092Y-122418168D01*
X121927088Y-122421862D01*
X121922053Y-122426793D01*
X121922050Y-122426795D01*
X121833787Y-122513229D01*
X121797493Y-122548771D01*
X121776410Y-122581486D01*
X121722697Y-122627909D01*
X121652410Y-122637924D01*
X121587867Y-122608349D01*
X121549559Y-122548574D01*
X121544500Y-122513229D01*
X121544500Y-121714866D01*
X121537745Y-121652684D01*
X121486615Y-121516295D01*
X121399261Y-121399739D01*
X121282705Y-121312385D01*
X121146316Y-121261255D01*
X121084134Y-121254500D01*
X121079097Y-121254500D01*
X121078731Y-121254392D01*
X121077320Y-121254316D01*
X121077338Y-121253984D01*
X121010976Y-121234498D01*
X120964483Y-121180842D01*
X120953882Y-121142545D01*
X120953467Y-121138838D01*
X120935397Y-120977745D01*
X120933080Y-120971091D01*
X120931520Y-120964226D01*
X120933259Y-120963831D01*
X120930191Y-120901992D01*
X120965569Y-120840437D01*
X121028609Y-120807780D01*
X121099297Y-120814390D01*
G37*
%TD.AperFunction*%
%TA.AperFunction,NonConductor*%
G36*
X124095318Y-123434129D02*
G01*
X124229072Y-123567883D01*
X124236188Y-123575701D01*
X124240174Y-123581983D01*
X124245954Y-123587411D01*
X124245955Y-123587412D01*
X124287947Y-123626845D01*
X124290789Y-123629600D01*
X124309735Y-123648546D01*
X124312874Y-123650981D01*
X124313524Y-123651554D01*
X124321655Y-123658501D01*
X124346759Y-123682074D01*
X124346762Y-123682076D01*
X124352542Y-123687504D01*
X124359487Y-123691322D01*
X124359490Y-123691324D01*
X124369320Y-123696728D01*
X124385847Y-123707584D01*
X124400966Y-123719312D01*
X124426336Y-123730291D01*
X124480907Y-123775699D01*
X124502268Y-123843406D01*
X124483553Y-123912042D01*
X124454338Y-123959438D01*
X124449885Y-123966662D01*
X124433565Y-124015866D01*
X124406085Y-124098717D01*
X124394203Y-124134539D01*
X124393503Y-124141375D01*
X124393502Y-124141378D01*
X124391167Y-124164173D01*
X124383500Y-124239000D01*
X124383500Y-124993900D01*
X124363498Y-125062021D01*
X124309842Y-125108514D01*
X124257500Y-125119900D01*
X122554101Y-125119900D01*
X122485980Y-125099898D01*
X122439487Y-125046242D01*
X122429383Y-124975968D01*
X122458877Y-124911388D01*
X122465006Y-124904805D01*
X123766701Y-123603110D01*
X123774517Y-123595998D01*
X123780794Y-123592015D01*
X123825641Y-123544258D01*
X123828396Y-123541416D01*
X123847358Y-123522454D01*
X123849784Y-123519327D01*
X123850349Y-123518686D01*
X123857318Y-123510526D01*
X123880886Y-123485428D01*
X123886315Y-123479647D01*
X123895539Y-123462869D01*
X123906234Y-123446554D01*
X123906509Y-123446198D01*
X123963982Y-123404516D01*
X124034866Y-123400523D01*
X124095318Y-123434129D01*
G37*
%TD.AperFunction*%
%TA.AperFunction,NonConductor*%
G36*
X113128999Y-124041502D02*
G01*
X113166148Y-124080057D01*
X113166200Y-124080017D01*
X113166572Y-124080497D01*
X113169330Y-124083359D01*
X113171055Y-124086276D01*
X113171058Y-124086280D01*
X113175095Y-124093106D01*
X113188622Y-124106633D01*
X113201463Y-124121667D01*
X113206072Y-124128011D01*
X113212721Y-124137162D01*
X113218829Y-124142215D01*
X113245372Y-124164173D01*
X113254152Y-124172163D01*
X114240793Y-125158805D01*
X114274819Y-125221117D01*
X114269754Y-125291933D01*
X114227207Y-125348768D01*
X114160687Y-125373579D01*
X114151698Y-125373900D01*
X113905112Y-125373900D01*
X113836991Y-125353898D01*
X113816017Y-125336995D01*
X112715617Y-124236595D01*
X112681591Y-124174283D01*
X112686656Y-124103468D01*
X112729203Y-124046632D01*
X112795723Y-124021821D01*
X112804712Y-124021500D01*
X113060878Y-124021500D01*
X113128999Y-124041502D01*
G37*
%TD.AperFunction*%
%TA.AperFunction,NonConductor*%
G36*
X110710535Y-125289346D02*
G01*
X111976993Y-126555805D01*
X112011019Y-126618117D01*
X112005954Y-126688933D01*
X111963407Y-126745768D01*
X111896887Y-126770579D01*
X111887898Y-126770900D01*
X110945761Y-126770900D01*
X110877640Y-126750898D01*
X110874574Y-126748690D01*
X110872815Y-126746918D01*
X110866931Y-126743184D01*
X110866927Y-126743181D01*
X110725621Y-126653506D01*
X110725620Y-126653506D01*
X110719666Y-126649727D01*
X110666234Y-126630701D01*
X110608770Y-126589007D01*
X110582969Y-126522865D01*
X110582500Y-126512002D01*
X110582500Y-125867866D01*
X110575745Y-125805684D01*
X110524615Y-125669295D01*
X110437261Y-125552739D01*
X110437858Y-125552291D01*
X110407253Y-125496244D01*
X110412318Y-125425429D01*
X110443481Y-125378216D01*
X110511504Y-125313438D01*
X110511505Y-125313437D01*
X110516603Y-125308582D01*
X110520501Y-125302715D01*
X110524917Y-125297452D01*
X110584025Y-125258124D01*
X110655013Y-125256996D01*
X110710535Y-125289346D01*
G37*
%TD.AperFunction*%
%TA.AperFunction,NonConductor*%
G36*
X108514007Y-124354973D02*
G01*
X108546844Y-124373458D01*
X108550697Y-124377305D01*
X108556933Y-124381149D01*
X108561450Y-124383933D01*
X108701262Y-124470115D01*
X108823863Y-124510780D01*
X108882222Y-124551209D01*
X108905192Y-124595221D01*
X108909628Y-124610488D01*
X108919374Y-124626968D01*
X108928065Y-124644708D01*
X108935116Y-124662517D01*
X108959558Y-124696159D01*
X108960020Y-124696795D01*
X108966536Y-124706715D01*
X108982788Y-124734195D01*
X108988095Y-124743169D01*
X109001622Y-124756696D01*
X109014463Y-124771730D01*
X109025721Y-124787225D01*
X109031829Y-124792278D01*
X109045943Y-124803954D01*
X109085681Y-124862788D01*
X109091027Y-124888742D01*
X109097500Y-124954760D01*
X109154755Y-125126873D01*
X109158402Y-125132895D01*
X109158403Y-125132897D01*
X109208870Y-125216229D01*
X109227049Y-125284859D01*
X109205238Y-125352422D01*
X109150362Y-125397468D01*
X109101094Y-125407500D01*
X108825866Y-125407500D01*
X108763684Y-125414255D01*
X108627295Y-125465385D01*
X108510739Y-125552739D01*
X108423385Y-125669295D01*
X108372255Y-125805684D01*
X108365500Y-125867866D01*
X108365500Y-126756499D01*
X108345498Y-126824620D01*
X108291842Y-126871113D01*
X108221568Y-126881217D01*
X108156988Y-126851723D01*
X108150423Y-126845612D01*
X107290941Y-125986129D01*
X107256917Y-125923819D01*
X107261982Y-125853003D01*
X107304529Y-125796168D01*
X107340161Y-125777513D01*
X107446993Y-125741870D01*
X107446995Y-125741869D01*
X107453946Y-125739550D01*
X107604348Y-125646478D01*
X107729305Y-125521303D01*
X107761453Y-125469150D01*
X107818275Y-125376968D01*
X107818276Y-125376966D01*
X107822115Y-125370738D01*
X107877797Y-125202861D01*
X107880088Y-125180507D01*
X107886763Y-125115354D01*
X107888500Y-125098400D01*
X107888500Y-124928502D01*
X107908502Y-124860381D01*
X107925405Y-124839406D01*
X108380879Y-124383933D01*
X108443191Y-124349908D01*
X108514007Y-124354973D01*
G37*
%TD.AperFunction*%
%TA.AperFunction,NonConductor*%
G36*
X122643621Y-126360102D02*
G01*
X122690114Y-126413758D01*
X122701500Y-126466100D01*
X122701500Y-126971998D01*
X122681498Y-127040119D01*
X122664595Y-127061093D01*
X122600640Y-127125048D01*
X122538328Y-127159074D01*
X122511545Y-127161953D01*
X121274049Y-127161953D01*
X121205928Y-127141951D01*
X121159435Y-127088295D01*
X121149331Y-127018021D01*
X121178825Y-126953441D01*
X121184954Y-126946857D01*
X121380914Y-126750898D01*
X121754808Y-126377004D01*
X121817120Y-126342979D01*
X121843903Y-126340100D01*
X122575500Y-126340100D01*
X122643621Y-126360102D01*
G37*
%TD.AperFunction*%
%TA.AperFunction,NonConductor*%
G36*
X124543621Y-126360102D02*
G01*
X124590114Y-126413758D01*
X124601500Y-126466100D01*
X124601500Y-127581500D01*
X124581498Y-127649621D01*
X124527842Y-127696114D01*
X124475500Y-127707500D01*
X124444500Y-127707500D01*
X124376379Y-127687498D01*
X124329886Y-127633842D01*
X124318500Y-127581500D01*
X124318500Y-126466100D01*
X124338502Y-126397979D01*
X124392158Y-126351486D01*
X124444500Y-126340100D01*
X124475500Y-126340100D01*
X124543621Y-126360102D01*
G37*
%TD.AperFunction*%
%TA.AperFunction,NonConductor*%
G36*
X111605520Y-128646102D02*
G01*
X111652013Y-128699758D01*
X111662117Y-128770032D01*
X111655381Y-128796329D01*
X111637029Y-128845282D01*
X111637027Y-128845288D01*
X111634255Y-128852684D01*
X111627500Y-128914866D01*
X111627500Y-130403680D01*
X111607498Y-130471801D01*
X111553842Y-130518294D01*
X111483568Y-130528398D01*
X111433986Y-130510065D01*
X111354666Y-130459727D01*
X111325463Y-130449328D01*
X111190425Y-130401243D01*
X111190420Y-130401242D01*
X111183790Y-130398881D01*
X111176802Y-130398048D01*
X111176799Y-130398047D01*
X111053698Y-130383368D01*
X111003680Y-130377404D01*
X110996677Y-130378140D01*
X110996676Y-130378140D01*
X110830288Y-130395628D01*
X110830286Y-130395629D01*
X110823288Y-130396364D01*
X110718507Y-130432034D01*
X110647576Y-130435052D01*
X110586272Y-130399242D01*
X110554061Y-130335973D01*
X110559921Y-130268526D01*
X110564166Y-130257203D01*
X110575745Y-130226316D01*
X110582500Y-130164134D01*
X110582500Y-129167866D01*
X110575745Y-129105684D01*
X110524615Y-128969295D01*
X110491306Y-128924851D01*
X110466458Y-128858345D01*
X110481511Y-128788962D01*
X110487184Y-128779559D01*
X110523630Y-128724703D01*
X110551754Y-128682373D01*
X110606111Y-128636703D01*
X110656702Y-128626100D01*
X111537399Y-128626100D01*
X111605520Y-128646102D01*
G37*
%TD.AperFunction*%
%TA.AperFunction,NonConductor*%
G36*
X110158254Y-131217600D02*
G01*
X110193166Y-131279420D01*
X110195839Y-131295663D01*
X110202163Y-131360160D01*
X110204387Y-131366845D01*
X110246327Y-131492922D01*
X110248850Y-131563874D01*
X110212613Y-131624926D01*
X110149121Y-131656696D01*
X110113162Y-131657957D01*
X110072134Y-131653500D01*
X109857501Y-131653500D01*
X109789380Y-131633498D01*
X109742887Y-131579842D01*
X109732783Y-131509568D01*
X109762277Y-131444988D01*
X109768406Y-131438405D01*
X109851883Y-131354928D01*
X109859701Y-131347812D01*
X109865983Y-131343826D01*
X109873484Y-131335839D01*
X109910845Y-131296053D01*
X109913600Y-131293211D01*
X109932546Y-131274265D01*
X109934981Y-131271126D01*
X109935554Y-131270476D01*
X109942501Y-131262345D01*
X109966074Y-131237241D01*
X109966076Y-131237238D01*
X109971075Y-131231915D01*
X109971080Y-131231911D01*
X109971503Y-131231460D01*
X109971576Y-131231528D01*
X110024726Y-131190543D01*
X110095463Y-131184468D01*
X110158254Y-131217600D01*
G37*
%TD.AperFunction*%
%TA.AperFunction,NonConductor*%
G36*
X123198429Y-128304787D02*
G01*
X123249992Y-128319768D01*
X123249997Y-128319769D01*
X123256169Y-128321562D01*
X123262574Y-128322066D01*
X123262579Y-128322067D01*
X123291042Y-128324307D01*
X123291050Y-128324307D01*
X123293498Y-128324500D01*
X123525500Y-128324500D01*
X123593621Y-128344502D01*
X123640114Y-128398158D01*
X123651500Y-128450500D01*
X123651500Y-129607502D01*
X123654438Y-129644831D01*
X123656232Y-129651006D01*
X123657324Y-129656984D01*
X123649888Y-129727590D01*
X123622470Y-129768718D01*
X123447108Y-129944080D01*
X123439295Y-129951190D01*
X123433017Y-129955174D01*
X123427591Y-129960953D01*
X123427590Y-129960953D01*
X123388170Y-130002931D01*
X123385415Y-130005773D01*
X123366453Y-130024735D01*
X123364027Y-130027862D01*
X123363462Y-130028503D01*
X123356494Y-130036661D01*
X123327496Y-130067542D01*
X123318272Y-130084319D01*
X123307425Y-130100832D01*
X123300548Y-130109698D01*
X123300545Y-130109703D01*
X123295687Y-130115966D01*
X123281176Y-130149500D01*
X123278862Y-130154847D01*
X123273646Y-130165495D01*
X123253235Y-130202622D01*
X123249122Y-130218641D01*
X123248475Y-130221161D01*
X123242074Y-130239859D01*
X123234468Y-130257435D01*
X123227842Y-130299274D01*
X123225435Y-130310897D01*
X123214900Y-130351926D01*
X123214900Y-130371064D01*
X123213349Y-130390774D01*
X123210354Y-130409684D01*
X123211100Y-130417575D01*
X123214341Y-130451861D01*
X123214900Y-130463719D01*
X123214900Y-130988322D01*
X123214402Y-130998874D01*
X123212781Y-131006128D01*
X123214069Y-131047121D01*
X123214838Y-131071595D01*
X123214900Y-131075552D01*
X123214900Y-131140098D01*
X123194898Y-131208219D01*
X123177995Y-131229193D01*
X122973593Y-131433595D01*
X122911281Y-131467621D01*
X122884498Y-131470500D01*
X122156600Y-131470500D01*
X122153354Y-131470837D01*
X122153350Y-131470837D01*
X122057692Y-131480762D01*
X122057688Y-131480763D01*
X122050834Y-131481474D01*
X122044298Y-131483655D01*
X122044296Y-131483655D01*
X122024202Y-131490359D01*
X121883054Y-131537450D01*
X121732652Y-131630522D01*
X121610910Y-131752477D01*
X121548629Y-131786555D01*
X121477809Y-131781552D01*
X121420912Y-131739023D01*
X121401088Y-131712571D01*
X121336707Y-131626668D01*
X121336392Y-131626248D01*
X121311544Y-131559741D01*
X121326597Y-131490359D01*
X121332224Y-131481759D01*
X121335452Y-131476301D01*
X121340313Y-131470034D01*
X121357139Y-131431150D01*
X121362354Y-131420505D01*
X121382765Y-131383378D01*
X121387525Y-131364838D01*
X121393928Y-131346136D01*
X121397430Y-131338045D01*
X121401532Y-131328565D01*
X121408159Y-131286722D01*
X121410566Y-131275098D01*
X121419129Y-131241750D01*
X121421100Y-131234074D01*
X121421100Y-131214936D01*
X121422651Y-131195225D01*
X121424406Y-131184144D01*
X121425646Y-131176316D01*
X121421659Y-131134139D01*
X121421100Y-131122281D01*
X121421100Y-131089097D01*
X121441102Y-131020976D01*
X121446274Y-131013532D01*
X121481229Y-130966892D01*
X121481230Y-130966890D01*
X121486615Y-130959705D01*
X121537745Y-130823316D01*
X121544500Y-130761134D01*
X121544500Y-128914866D01*
X121537745Y-128852684D01*
X121486615Y-128716295D01*
X121399261Y-128599739D01*
X121394302Y-128596022D01*
X121360945Y-128534936D01*
X121366010Y-128464121D01*
X121408557Y-128407285D01*
X121475077Y-128382474D01*
X121484066Y-128382153D01*
X122740769Y-128382153D01*
X122751321Y-128382651D01*
X122758575Y-128384272D01*
X122824042Y-128382215D01*
X122827999Y-128382153D01*
X122854830Y-128382153D01*
X122858757Y-128381657D01*
X122859663Y-128381600D01*
X122870307Y-128380761D01*
X122912646Y-128379431D01*
X122931033Y-128374089D01*
X122950390Y-128370081D01*
X122961512Y-128368676D01*
X122961513Y-128368676D01*
X122969379Y-128367682D01*
X122979951Y-128363497D01*
X123008765Y-128352089D01*
X123019992Y-128348245D01*
X123053056Y-128338638D01*
X123053058Y-128338637D01*
X123060672Y-128336425D01*
X123077152Y-128326679D01*
X123094892Y-128317988D01*
X123112701Y-128310937D01*
X123113502Y-128312959D01*
X123171909Y-128300080D01*
X123198429Y-128304787D01*
G37*
%TD.AperFunction*%
%TA.AperFunction,NonConductor*%
G36*
X113074241Y-133520461D02*
G01*
X113119329Y-133549382D01*
X113201829Y-133631739D01*
X113213240Y-133640751D01*
X113351243Y-133725816D01*
X113364422Y-133731962D01*
X113384018Y-133738462D01*
X113442377Y-133778894D01*
X113469613Y-133844459D01*
X113457079Y-133914340D01*
X113408753Y-133966351D01*
X113384224Y-133977579D01*
X113363218Y-133984587D01*
X113350038Y-133990761D01*
X113212193Y-134076063D01*
X113200792Y-134085099D01*
X113119570Y-134166462D01*
X113057287Y-134200541D01*
X112986467Y-134195538D01*
X112941380Y-134166617D01*
X112858488Y-134083870D01*
X112858483Y-134083866D01*
X112853303Y-134078695D01*
X112812212Y-134053366D01*
X112708968Y-133989725D01*
X112708966Y-133989724D01*
X112702738Y-133985885D01*
X112685158Y-133980054D01*
X112677570Y-133977537D01*
X112619209Y-133937107D01*
X112591972Y-133871543D01*
X112604505Y-133801661D01*
X112652829Y-133749649D01*
X112677359Y-133738421D01*
X112696993Y-133731871D01*
X112697003Y-133731867D01*
X112703946Y-133729550D01*
X112854348Y-133636478D01*
X112862509Y-133628303D01*
X112941138Y-133549537D01*
X113003421Y-133515458D01*
X113074241Y-133520461D01*
G37*
%TD.AperFunction*%
%TA.AperFunction,NonConductor*%
G36*
X119679108Y-134234102D02*
G01*
X119725601Y-134287758D01*
X119735705Y-134358032D01*
X119708173Y-134418315D01*
X119708739Y-134418739D01*
X119706795Y-134421332D01*
X119706794Y-134421334D01*
X119621385Y-134535295D01*
X119570255Y-134671684D01*
X119563500Y-134733866D01*
X119563500Y-136017500D01*
X119543498Y-136085621D01*
X119489842Y-136132114D01*
X119437500Y-136143500D01*
X118797820Y-136143500D01*
X118729699Y-136123498D01*
X118683206Y-136069842D01*
X118673102Y-135999568D01*
X118702596Y-135934988D01*
X118710928Y-135926254D01*
X118733266Y-135904982D01*
X118833643Y-135753902D01*
X118882553Y-135625146D01*
X118895555Y-135590920D01*
X118895556Y-135590918D01*
X118898055Y-135584338D01*
X118908322Y-135511282D01*
X118922748Y-135408639D01*
X118922748Y-135408636D01*
X118923299Y-135404717D01*
X118923616Y-135382000D01*
X118903397Y-135201745D01*
X118901080Y-135195091D01*
X118846064Y-135037106D01*
X118846062Y-135037103D01*
X118843745Y-135030448D01*
X118773062Y-134917331D01*
X118751359Y-134882598D01*
X118747626Y-134876624D01*
X118742664Y-134871627D01*
X118624778Y-134752915D01*
X118624774Y-134752912D01*
X118619815Y-134747918D01*
X118466666Y-134650727D01*
X118437463Y-134640328D01*
X118302425Y-134592243D01*
X118302420Y-134592242D01*
X118295790Y-134589881D01*
X118288802Y-134589048D01*
X118288799Y-134589047D01*
X118215978Y-134580364D01*
X118204103Y-134578948D01*
X118138830Y-134551021D01*
X118118196Y-134529399D01*
X118113505Y-134523139D01*
X118035261Y-134418739D01*
X118037352Y-134417172D01*
X118009892Y-134366883D01*
X118014957Y-134296068D01*
X118057504Y-134239232D01*
X118124024Y-134214421D01*
X118133013Y-134214100D01*
X119610987Y-134214100D01*
X119679108Y-134234102D01*
G37*
%TD.AperFunction*%
M02*
