%TF.GenerationSoftware,KiCad,Pcbnew,(6.0.7)*%
%TF.CreationDate,2022-10-10T13:16:40-04:00*%
%TF.ProjectId,dumbwatch,64756d62-7761-4746-9368-2e6b69636164,rev?*%
%TF.SameCoordinates,Original*%
%TF.FileFunction,Drillmap*%
%TF.FilePolarity,Positive*%
%FSLAX45Y45*%
G04 Gerber Fmt 4.5, Leading zero omitted, Abs format (unit mm)*
G04 Created by KiCad (PCBNEW (6.0.7)) date 2022-10-10 13:16:40*
%MOMM*%
%LPD*%
G01*
G04 APERTURE LIST*
%ADD10C,0.200000*%
G04 APERTURE END LIST*
D10*
X10236200Y-13665200D02*
X12954000Y-13665200D01*
X12954000Y-13665200D02*
X12954000Y-11557000D01*
X12954000Y-11557000D02*
X10236200Y-11557000D01*
X10236200Y-11557000D02*
X10236200Y-13665200D01*
X10483819Y-13985676D02*
X10483819Y-13785676D01*
X10531438Y-13785676D01*
X10560010Y-13795200D01*
X10579057Y-13814248D01*
X10588581Y-13833295D01*
X10598105Y-13871390D01*
X10598105Y-13899962D01*
X10588581Y-13938057D01*
X10579057Y-13957105D01*
X10560010Y-13976152D01*
X10531438Y-13985676D01*
X10483819Y-13985676D01*
X10683819Y-13985676D02*
X10683819Y-13852343D01*
X10683819Y-13890438D02*
X10693343Y-13871390D01*
X10702867Y-13861867D01*
X10721914Y-13852343D01*
X10740962Y-13852343D01*
X10807629Y-13985676D02*
X10807629Y-13852343D01*
X10807629Y-13785676D02*
X10798105Y-13795200D01*
X10807629Y-13804724D01*
X10817152Y-13795200D01*
X10807629Y-13785676D01*
X10807629Y-13804724D01*
X10931438Y-13985676D02*
X10912390Y-13976152D01*
X10902867Y-13957105D01*
X10902867Y-13785676D01*
X11036200Y-13985676D02*
X11017152Y-13976152D01*
X11007629Y-13957105D01*
X11007629Y-13785676D01*
X11264771Y-13985676D02*
X11264771Y-13785676D01*
X11331438Y-13928533D01*
X11398105Y-13785676D01*
X11398105Y-13985676D01*
X11579057Y-13985676D02*
X11579057Y-13880914D01*
X11569533Y-13861867D01*
X11550486Y-13852343D01*
X11512390Y-13852343D01*
X11493343Y-13861867D01*
X11579057Y-13976152D02*
X11560009Y-13985676D01*
X11512390Y-13985676D01*
X11493343Y-13976152D01*
X11483819Y-13957105D01*
X11483819Y-13938057D01*
X11493343Y-13919009D01*
X11512390Y-13909486D01*
X11560009Y-13909486D01*
X11579057Y-13899962D01*
X11674295Y-13852343D02*
X11674295Y-14052343D01*
X11674295Y-13861867D02*
X11693343Y-13852343D01*
X11731438Y-13852343D01*
X11750486Y-13861867D01*
X11760009Y-13871390D01*
X11769533Y-13890438D01*
X11769533Y-13947581D01*
X11760009Y-13966628D01*
X11750486Y-13976152D01*
X11731438Y-13985676D01*
X11693343Y-13985676D01*
X11674295Y-13976152D01*
X11855248Y-13966628D02*
X11864771Y-13976152D01*
X11855248Y-13985676D01*
X11845724Y-13976152D01*
X11855248Y-13966628D01*
X11855248Y-13985676D01*
X11855248Y-13861867D02*
X11864771Y-13871390D01*
X11855248Y-13880914D01*
X11845724Y-13871390D01*
X11855248Y-13861867D01*
X11855248Y-13880914D01*
M02*
