%TF.GenerationSoftware,KiCad,Pcbnew,(6.0.7)*%
%TF.CreationDate,2022-10-10T13:15:42-04:00*%
%TF.ProjectId,dumbwatch,64756d62-7761-4746-9368-2e6b69636164,rev?*%
%TF.SameCoordinates,Original*%
%TF.FileFunction,Legend,Top*%
%TF.FilePolarity,Positive*%
%FSLAX46Y46*%
G04 Gerber Fmt 4.6, Leading zero omitted, Abs format (unit mm)*
G04 Created by KiCad (PCBNEW (6.0.7)) date 2022-10-10 13:15:42*
%MOMM*%
%LPD*%
G01*
G04 APERTURE LIST*
G04 Aperture macros list*
%AMRoundRect*
0 Rectangle with rounded corners*
0 $1 Rounding radius*
0 $2 $3 $4 $5 $6 $7 $8 $9 X,Y pos of 4 corners*
0 Add a 4 corners polygon primitive as box body*
4,1,4,$2,$3,$4,$5,$6,$7,$8,$9,$2,$3,0*
0 Add four circle primitives for the rounded corners*
1,1,$1+$1,$2,$3*
1,1,$1+$1,$4,$5*
1,1,$1+$1,$6,$7*
1,1,$1+$1,$8,$9*
0 Add four rect primitives between the rounded corners*
20,1,$1+$1,$2,$3,$4,$5,0*
20,1,$1+$1,$4,$5,$6,$7,0*
20,1,$1+$1,$6,$7,$8,$9,0*
20,1,$1+$1,$8,$9,$2,$3,0*%
G04 Aperture macros list end*
%ADD10C,0.150000*%
%ADD11C,0.120000*%
%ADD12C,0.010000*%
%ADD13RoundRect,0.150000X0.150000X-0.512500X0.150000X0.512500X-0.150000X0.512500X-0.150000X-0.512500X0*%
%ADD14RoundRect,0.150000X-0.512500X-0.150000X0.512500X-0.150000X0.512500X0.150000X-0.512500X0.150000X0*%
%ADD15RoundRect,0.150000X0.150000X-0.587500X0.150000X0.587500X-0.150000X0.587500X-0.150000X-0.587500X0*%
%ADD16R,2.000000X1.000000*%
%ADD17RoundRect,0.250000X0.475000X-0.337500X0.475000X0.337500X-0.475000X0.337500X-0.475000X-0.337500X0*%
%ADD18RoundRect,0.250000X-0.337500X-0.475000X0.337500X-0.475000X0.337500X0.475000X-0.337500X0.475000X0*%
%ADD19RoundRect,0.250000X0.350000X0.450000X-0.350000X0.450000X-0.350000X-0.450000X0.350000X-0.450000X0*%
%ADD20RoundRect,0.250000X0.337500X0.475000X-0.337500X0.475000X-0.337500X-0.475000X0.337500X-0.475000X0*%
%ADD21R,0.300000X1.300000*%
%ADD22R,1.800000X2.200000*%
%ADD23RoundRect,0.250000X-0.350000X-0.450000X0.350000X-0.450000X0.350000X0.450000X-0.350000X0.450000X0*%
%ADD24RoundRect,0.250000X-0.475000X0.337500X-0.475000X-0.337500X0.475000X-0.337500X0.475000X0.337500X0*%
%ADD25RoundRect,0.250000X0.450000X-0.350000X0.450000X0.350000X-0.450000X0.350000X-0.450000X-0.350000X0*%
%ADD26RoundRect,0.250000X-0.350000X-0.625000X0.350000X-0.625000X0.350000X0.625000X-0.350000X0.625000X0*%
%ADD27O,1.200000X1.750000*%
G04 APERTURE END LIST*
D10*
X114601666Y-122372380D02*
X114601666Y-121372380D01*
X114935000Y-122086666D01*
X115268333Y-121372380D01*
X115268333Y-122372380D01*
X109927190Y-128468380D02*
X109927190Y-127468380D01*
X110165285Y-127468380D01*
X110308142Y-127516000D01*
X110403380Y-127611238D01*
X110451000Y-127706476D01*
X110498619Y-127896952D01*
X110498619Y-128039809D01*
X110451000Y-128230285D01*
X110403380Y-128325523D01*
X110308142Y-128420761D01*
X110165285Y-128468380D01*
X109927190Y-128468380D01*
X111355761Y-127801714D02*
X111355761Y-128468380D01*
X110927190Y-127801714D02*
X110927190Y-128325523D01*
X110974809Y-128420761D01*
X111070047Y-128468380D01*
X111212904Y-128468380D01*
X111308142Y-128420761D01*
X111355761Y-128373142D01*
X111831952Y-128468380D02*
X111831952Y-127801714D01*
X111831952Y-127896952D02*
X111879571Y-127849333D01*
X111974809Y-127801714D01*
X112117666Y-127801714D01*
X112212904Y-127849333D01*
X112260523Y-127944571D01*
X112260523Y-128468380D01*
X112260523Y-127944571D02*
X112308142Y-127849333D01*
X112403380Y-127801714D01*
X112546238Y-127801714D01*
X112641476Y-127849333D01*
X112689095Y-127944571D01*
X112689095Y-128468380D01*
X113165285Y-128468380D02*
X113165285Y-127468380D01*
X113165285Y-127849333D02*
X113260523Y-127801714D01*
X113451000Y-127801714D01*
X113546238Y-127849333D01*
X113593857Y-127896952D01*
X113641476Y-127992190D01*
X113641476Y-128277904D01*
X113593857Y-128373142D01*
X113546238Y-128420761D01*
X113451000Y-128468380D01*
X113260523Y-128468380D01*
X113165285Y-128420761D01*
X113974809Y-127468380D02*
X114212904Y-128468380D01*
X114403380Y-127754095D01*
X114593857Y-128468380D01*
X114831952Y-127468380D01*
X115641476Y-128468380D02*
X115641476Y-127944571D01*
X115593857Y-127849333D01*
X115498619Y-127801714D01*
X115308142Y-127801714D01*
X115212904Y-127849333D01*
X115641476Y-128420761D02*
X115546238Y-128468380D01*
X115308142Y-128468380D01*
X115212904Y-128420761D01*
X115165285Y-128325523D01*
X115165285Y-128230285D01*
X115212904Y-128135047D01*
X115308142Y-128087428D01*
X115546238Y-128087428D01*
X115641476Y-128039809D01*
X115974809Y-127801714D02*
X116355761Y-127801714D01*
X116117666Y-127468380D02*
X116117666Y-128325523D01*
X116165285Y-128420761D01*
X116260523Y-128468380D01*
X116355761Y-128468380D01*
X117117666Y-128420761D02*
X117022428Y-128468380D01*
X116831952Y-128468380D01*
X116736714Y-128420761D01*
X116689095Y-128373142D01*
X116641476Y-128277904D01*
X116641476Y-127992190D01*
X116689095Y-127896952D01*
X116736714Y-127849333D01*
X116831952Y-127801714D01*
X117022428Y-127801714D01*
X117117666Y-127849333D01*
X117546238Y-128468380D02*
X117546238Y-127468380D01*
X117974809Y-128468380D02*
X117974809Y-127944571D01*
X117927190Y-127849333D01*
X117831952Y-127801714D01*
X117689095Y-127801714D01*
X117593857Y-127849333D01*
X117546238Y-127896952D01*
X119070047Y-127468380D02*
X119403380Y-128468380D01*
X119736714Y-127468380D01*
X120593857Y-128468380D02*
X120022428Y-128468380D01*
X120308142Y-128468380D02*
X120308142Y-127468380D01*
X120212904Y-127611238D01*
X120117666Y-127706476D01*
X120022428Y-127754095D01*
X121022428Y-128373142D02*
X121070047Y-128420761D01*
X121022428Y-128468380D01*
X120974809Y-128420761D01*
X121022428Y-128373142D01*
X121022428Y-128468380D01*
X121689095Y-127468380D02*
X121784333Y-127468380D01*
X121879571Y-127516000D01*
X121927190Y-127563619D01*
X121974809Y-127658857D01*
X122022428Y-127849333D01*
X122022428Y-128087428D01*
X121974809Y-128277904D01*
X121927190Y-128373142D01*
X121879571Y-128420761D01*
X121784333Y-128468380D01*
X121689095Y-128468380D01*
X121593857Y-128420761D01*
X121546238Y-128373142D01*
X121498619Y-128277904D01*
X121451000Y-128087428D01*
X121451000Y-127849333D01*
X121498619Y-127658857D01*
X121546238Y-127563619D01*
X121593857Y-127516000D01*
X121689095Y-127468380D01*
D11*
X126782000Y-118110000D02*
X126782000Y-118910000D01*
X123662000Y-118110000D02*
X123662000Y-119910000D01*
X123662000Y-118110000D02*
X123662000Y-117310000D01*
X126782000Y-118110000D02*
X126782000Y-117310000D01*
X104902000Y-123916000D02*
X105702000Y-123916000D01*
X104902000Y-123916000D02*
X103102000Y-123916000D01*
X104902000Y-127036000D02*
X105702000Y-127036000D01*
X104902000Y-127036000D02*
X104102000Y-127036000D01*
X106208000Y-131826000D02*
X106208000Y-132476000D01*
X103088000Y-131826000D02*
X103088000Y-133501000D01*
X106208000Y-131826000D02*
X106208000Y-131176000D01*
X103088000Y-131826000D02*
X103088000Y-131176000D01*
G36*
X110854700Y-123139200D02*
G01*
X102472700Y-123139200D01*
X102472700Y-120700800D01*
X110854700Y-120700800D01*
X110854700Y-123139200D01*
G37*
D10*
X110854700Y-123139200D02*
X102472700Y-123139200D01*
X102472700Y-120700800D01*
X110854700Y-120700800D01*
X110854700Y-123139200D01*
X110918500Y-115570000D02*
X102418500Y-115570000D01*
X110918500Y-123190000D02*
X110918500Y-115570000D01*
X110918500Y-120650000D02*
X102418500Y-120650000D01*
X110918500Y-123190000D02*
X102418500Y-123190000D01*
X102418500Y-123190000D02*
X102418500Y-115570000D01*
X110918500Y-118110000D02*
X102418500Y-118110000D01*
G36*
X115035353Y-132578113D02*
G01*
X115026482Y-132485131D01*
X115018088Y-132396110D01*
X115010257Y-132312023D01*
X115003076Y-132233843D01*
X114996631Y-132162543D01*
X114991008Y-132099098D01*
X114986293Y-132044479D01*
X114982572Y-131999661D01*
X114979931Y-131965617D01*
X114978457Y-131943320D01*
X114978235Y-131933742D01*
X114978323Y-131933454D01*
X114985486Y-131935128D01*
X115003938Y-131941832D01*
X115032236Y-131952974D01*
X115068938Y-131967966D01*
X115112599Y-131986218D01*
X115161775Y-132007139D01*
X115215024Y-132030139D01*
X115216125Y-132030618D01*
X115269386Y-132053770D01*
X115318506Y-132075069D01*
X115362053Y-132093899D01*
X115398596Y-132109642D01*
X115426705Y-132121683D01*
X115444949Y-132129405D01*
X115451895Y-132132191D01*
X115451909Y-132132192D01*
X115455585Y-132126261D01*
X115465460Y-132109103D01*
X115481002Y-132081672D01*
X115501677Y-132044922D01*
X115526952Y-131999806D01*
X115556293Y-131947279D01*
X115589167Y-131888293D01*
X115625040Y-131823804D01*
X115663378Y-131754763D01*
X115700911Y-131687066D01*
X115741149Y-131614606D01*
X115779532Y-131545811D01*
X115815516Y-131481636D01*
X115848558Y-131423036D01*
X115878113Y-131370967D01*
X115903638Y-131326382D01*
X115924587Y-131290238D01*
X115940418Y-131263489D01*
X115950585Y-131247091D01*
X115954480Y-131241967D01*
X115958914Y-131247905D01*
X115969516Y-131265069D01*
X115985733Y-131292494D01*
X116007017Y-131329215D01*
X116032817Y-131374269D01*
X116062583Y-131426690D01*
X116095765Y-131485515D01*
X116131813Y-131549778D01*
X116170176Y-131618517D01*
X116203447Y-131678394D01*
X116243369Y-131750367D01*
X116281398Y-131818895D01*
X116316983Y-131882988D01*
X116349574Y-131941656D01*
X116378619Y-131993908D01*
X116403569Y-132038755D01*
X116423873Y-132075205D01*
X116438980Y-132102270D01*
X116448339Y-132118958D01*
X116451334Y-132124197D01*
X116455557Y-132125601D01*
X116465410Y-132123950D01*
X116481913Y-132118851D01*
X116506090Y-132109909D01*
X116538962Y-132096728D01*
X116581551Y-132078916D01*
X116634880Y-132056076D01*
X116691783Y-132031385D01*
X116745229Y-132008260D01*
X116794633Y-131987198D01*
X116838555Y-131968790D01*
X116875557Y-131953625D01*
X116904199Y-131942293D01*
X116923043Y-131935382D01*
X116930651Y-131933482D01*
X116930700Y-131933517D01*
X116930680Y-131940923D01*
X116929395Y-131961208D01*
X116926930Y-131993399D01*
X116923371Y-132036522D01*
X116918805Y-132089605D01*
X116913318Y-132151673D01*
X116906995Y-132221755D01*
X116899924Y-132298876D01*
X116892190Y-132382064D01*
X116883880Y-132470345D01*
X116875080Y-132562747D01*
X116873606Y-132578113D01*
X116864721Y-132671058D01*
X116856282Y-132760014D01*
X116848379Y-132844010D01*
X116841099Y-132922077D01*
X116834532Y-132993244D01*
X116828764Y-133056541D01*
X116823885Y-133110998D01*
X116819983Y-133155643D01*
X116817146Y-133189507D01*
X116815462Y-133211619D01*
X116815020Y-133221010D01*
X116815073Y-133221269D01*
X116820652Y-133217311D01*
X116835688Y-133204887D01*
X116859257Y-133184803D01*
X116890434Y-133157863D01*
X116928296Y-133124873D01*
X116971918Y-133086636D01*
X117020376Y-133043959D01*
X117072745Y-132997646D01*
X117119061Y-132956540D01*
X117174108Y-132907694D01*
X117226100Y-132861723D01*
X117274100Y-132819445D01*
X117317174Y-132781676D01*
X117354385Y-132749233D01*
X117384797Y-132722931D01*
X117407475Y-132703587D01*
X117421482Y-132692018D01*
X117425853Y-132688905D01*
X117427978Y-132690463D01*
X117431242Y-132695908D01*
X117436099Y-132706398D01*
X117443001Y-132723089D01*
X117452401Y-132747138D01*
X117464751Y-132779702D01*
X117480503Y-132821939D01*
X117500111Y-132875004D01*
X117522753Y-132936583D01*
X117543427Y-132992892D01*
X117484126Y-133061302D01*
X117407616Y-133151806D01*
X117327367Y-133250895D01*
X117244504Y-133356960D01*
X117160153Y-133468391D01*
X117075440Y-133583578D01*
X116991490Y-133700911D01*
X116909429Y-133818779D01*
X116830382Y-133935573D01*
X116755476Y-134049683D01*
X116685836Y-134159499D01*
X116622587Y-134263410D01*
X116566856Y-134359807D01*
X116533192Y-134421437D01*
X116495401Y-134492623D01*
X116472445Y-134459258D01*
X116428684Y-134390895D01*
X116383339Y-134311222D01*
X116337500Y-134222587D01*
X116292257Y-134127337D01*
X116248702Y-134027821D01*
X116207925Y-133926387D01*
X116171016Y-133825383D01*
X116152808Y-133771014D01*
X116119975Y-133663980D01*
X116087111Y-133546397D01*
X116055045Y-133421606D01*
X116024605Y-133292948D01*
X115996619Y-133163766D01*
X115974846Y-133053197D01*
X115955129Y-132947764D01*
X115919304Y-133126266D01*
X115879713Y-133312152D01*
X115838007Y-133485290D01*
X115793810Y-133646738D01*
X115746747Y-133797556D01*
X115696443Y-133938803D01*
X115642522Y-134071539D01*
X115584609Y-134196822D01*
X115522330Y-134315714D01*
X115461269Y-134419689D01*
X115444644Y-134446104D01*
X115430432Y-134467856D01*
X115420357Y-134482356D01*
X115416446Y-134486989D01*
X115411281Y-134482639D01*
X115401666Y-134468340D01*
X115389237Y-134446659D01*
X115381963Y-134432849D01*
X115341515Y-134357484D01*
X115292891Y-134273061D01*
X115237079Y-134180995D01*
X115175066Y-134082702D01*
X115107841Y-133979597D01*
X115036391Y-133873097D01*
X114961704Y-133764616D01*
X114884769Y-133655572D01*
X114806574Y-133547379D01*
X114728106Y-133441454D01*
X114650353Y-133339213D01*
X114574304Y-133242070D01*
X114500947Y-133151442D01*
X114431269Y-133068745D01*
X114424833Y-133061302D01*
X114365533Y-132992892D01*
X114386206Y-132936583D01*
X114409904Y-132872136D01*
X114429316Y-132819618D01*
X114444892Y-132777874D01*
X114457085Y-132745748D01*
X114466347Y-132722082D01*
X114473130Y-132705722D01*
X114477886Y-132695510D01*
X114481067Y-132690291D01*
X114483032Y-132688905D01*
X114489122Y-132693401D01*
X114504664Y-132706345D01*
X114528720Y-132726921D01*
X114560355Y-132754313D01*
X114598634Y-132787706D01*
X114642620Y-132826283D01*
X114691378Y-132869228D01*
X114743971Y-132915726D01*
X114789901Y-132956462D01*
X114844864Y-133005191D01*
X114896687Y-133050962D01*
X114944446Y-133092973D01*
X114987218Y-133130418D01*
X115024078Y-133162492D01*
X115054102Y-133188390D01*
X115076366Y-133207309D01*
X115089945Y-133218444D01*
X115093964Y-133221192D01*
X115093725Y-133214009D01*
X115092230Y-133193944D01*
X115089567Y-133161966D01*
X115085825Y-133119047D01*
X115081093Y-133066155D01*
X115075459Y-133004261D01*
X115069011Y-132934336D01*
X115061838Y-132857350D01*
X115054027Y-132774272D01*
X115045669Y-132686073D01*
X115044589Y-132674759D01*
X115701620Y-132674759D01*
X115704163Y-132675501D01*
X115714388Y-132667970D01*
X115730168Y-132653764D01*
X115732210Y-132651806D01*
X115756828Y-132631313D01*
X115787418Y-132610308D01*
X115815302Y-132594429D01*
X115877412Y-132570844D01*
X115940461Y-132560774D01*
X116003073Y-132564010D01*
X116063872Y-132580343D01*
X116121481Y-132609563D01*
X116171452Y-132648553D01*
X116189262Y-132664419D01*
X116201904Y-132674124D01*
X116207292Y-132676124D01*
X116207181Y-132674987D01*
X116204497Y-132666617D01*
X116198047Y-132646151D01*
X116188204Y-132614781D01*
X116175341Y-132573698D01*
X116159830Y-132524096D01*
X116142044Y-132467164D01*
X116122357Y-132404097D01*
X116101140Y-132336085D01*
X116079880Y-132267891D01*
X116057647Y-132196600D01*
X116036658Y-132129371D01*
X116017273Y-132067361D01*
X115999857Y-132011728D01*
X115984771Y-131963628D01*
X115972380Y-131924219D01*
X115963046Y-131894658D01*
X115957131Y-131876103D01*
X115955004Y-131869712D01*
X115952770Y-131875888D01*
X115946765Y-131894210D01*
X115937352Y-131923536D01*
X115924891Y-131962722D01*
X115909745Y-132010624D01*
X115892274Y-132066100D01*
X115872841Y-132128005D01*
X115851807Y-132195196D01*
X115829583Y-132266370D01*
X115807201Y-132338109D01*
X115785991Y-132406032D01*
X115766324Y-132468951D01*
X115748573Y-132525677D01*
X115733112Y-132575021D01*
X115720311Y-132615795D01*
X115710544Y-132646811D01*
X115704183Y-132666879D01*
X115701620Y-132674759D01*
X115044589Y-132674759D01*
X115036850Y-132593724D01*
X115035353Y-132578113D01*
G37*
D12*
X115035353Y-132578113D02*
X115026482Y-132485131D01*
X115018088Y-132396110D01*
X115010257Y-132312023D01*
X115003076Y-132233843D01*
X114996631Y-132162543D01*
X114991008Y-132099098D01*
X114986293Y-132044479D01*
X114982572Y-131999661D01*
X114979931Y-131965617D01*
X114978457Y-131943320D01*
X114978235Y-131933742D01*
X114978323Y-131933454D01*
X114985486Y-131935128D01*
X115003938Y-131941832D01*
X115032236Y-131952974D01*
X115068938Y-131967966D01*
X115112599Y-131986218D01*
X115161775Y-132007139D01*
X115215024Y-132030139D01*
X115216125Y-132030618D01*
X115269386Y-132053770D01*
X115318506Y-132075069D01*
X115362053Y-132093899D01*
X115398596Y-132109642D01*
X115426705Y-132121683D01*
X115444949Y-132129405D01*
X115451895Y-132132191D01*
X115451909Y-132132192D01*
X115455585Y-132126261D01*
X115465460Y-132109103D01*
X115481002Y-132081672D01*
X115501677Y-132044922D01*
X115526952Y-131999806D01*
X115556293Y-131947279D01*
X115589167Y-131888293D01*
X115625040Y-131823804D01*
X115663378Y-131754763D01*
X115700911Y-131687066D01*
X115741149Y-131614606D01*
X115779532Y-131545811D01*
X115815516Y-131481636D01*
X115848558Y-131423036D01*
X115878113Y-131370967D01*
X115903638Y-131326382D01*
X115924587Y-131290238D01*
X115940418Y-131263489D01*
X115950585Y-131247091D01*
X115954480Y-131241967D01*
X115958914Y-131247905D01*
X115969516Y-131265069D01*
X115985733Y-131292494D01*
X116007017Y-131329215D01*
X116032817Y-131374269D01*
X116062583Y-131426690D01*
X116095765Y-131485515D01*
X116131813Y-131549778D01*
X116170176Y-131618517D01*
X116203447Y-131678394D01*
X116243369Y-131750367D01*
X116281398Y-131818895D01*
X116316983Y-131882988D01*
X116349574Y-131941656D01*
X116378619Y-131993908D01*
X116403569Y-132038755D01*
X116423873Y-132075205D01*
X116438980Y-132102270D01*
X116448339Y-132118958D01*
X116451334Y-132124197D01*
X116455557Y-132125601D01*
X116465410Y-132123950D01*
X116481913Y-132118851D01*
X116506090Y-132109909D01*
X116538962Y-132096728D01*
X116581551Y-132078916D01*
X116634880Y-132056076D01*
X116691783Y-132031385D01*
X116745229Y-132008260D01*
X116794633Y-131987198D01*
X116838555Y-131968790D01*
X116875557Y-131953625D01*
X116904199Y-131942293D01*
X116923043Y-131935382D01*
X116930651Y-131933482D01*
X116930700Y-131933517D01*
X116930680Y-131940923D01*
X116929395Y-131961208D01*
X116926930Y-131993399D01*
X116923371Y-132036522D01*
X116918805Y-132089605D01*
X116913318Y-132151673D01*
X116906995Y-132221755D01*
X116899924Y-132298876D01*
X116892190Y-132382064D01*
X116883880Y-132470345D01*
X116875080Y-132562747D01*
X116873606Y-132578113D01*
X116864721Y-132671058D01*
X116856282Y-132760014D01*
X116848379Y-132844010D01*
X116841099Y-132922077D01*
X116834532Y-132993244D01*
X116828764Y-133056541D01*
X116823885Y-133110998D01*
X116819983Y-133155643D01*
X116817146Y-133189507D01*
X116815462Y-133211619D01*
X116815020Y-133221010D01*
X116815073Y-133221269D01*
X116820652Y-133217311D01*
X116835688Y-133204887D01*
X116859257Y-133184803D01*
X116890434Y-133157863D01*
X116928296Y-133124873D01*
X116971918Y-133086636D01*
X117020376Y-133043959D01*
X117072745Y-132997646D01*
X117119061Y-132956540D01*
X117174108Y-132907694D01*
X117226100Y-132861723D01*
X117274100Y-132819445D01*
X117317174Y-132781676D01*
X117354385Y-132749233D01*
X117384797Y-132722931D01*
X117407475Y-132703587D01*
X117421482Y-132692018D01*
X117425853Y-132688905D01*
X117427978Y-132690463D01*
X117431242Y-132695908D01*
X117436099Y-132706398D01*
X117443001Y-132723089D01*
X117452401Y-132747138D01*
X117464751Y-132779702D01*
X117480503Y-132821939D01*
X117500111Y-132875004D01*
X117522753Y-132936583D01*
X117543427Y-132992892D01*
X117484126Y-133061302D01*
X117407616Y-133151806D01*
X117327367Y-133250895D01*
X117244504Y-133356960D01*
X117160153Y-133468391D01*
X117075440Y-133583578D01*
X116991490Y-133700911D01*
X116909429Y-133818779D01*
X116830382Y-133935573D01*
X116755476Y-134049683D01*
X116685836Y-134159499D01*
X116622587Y-134263410D01*
X116566856Y-134359807D01*
X116533192Y-134421437D01*
X116495401Y-134492623D01*
X116472445Y-134459258D01*
X116428684Y-134390895D01*
X116383339Y-134311222D01*
X116337500Y-134222587D01*
X116292257Y-134127337D01*
X116248702Y-134027821D01*
X116207925Y-133926387D01*
X116171016Y-133825383D01*
X116152808Y-133771014D01*
X116119975Y-133663980D01*
X116087111Y-133546397D01*
X116055045Y-133421606D01*
X116024605Y-133292948D01*
X115996619Y-133163766D01*
X115974846Y-133053197D01*
X115955129Y-132947764D01*
X115919304Y-133126266D01*
X115879713Y-133312152D01*
X115838007Y-133485290D01*
X115793810Y-133646738D01*
X115746747Y-133797556D01*
X115696443Y-133938803D01*
X115642522Y-134071539D01*
X115584609Y-134196822D01*
X115522330Y-134315714D01*
X115461269Y-134419689D01*
X115444644Y-134446104D01*
X115430432Y-134467856D01*
X115420357Y-134482356D01*
X115416446Y-134486989D01*
X115411281Y-134482639D01*
X115401666Y-134468340D01*
X115389237Y-134446659D01*
X115381963Y-134432849D01*
X115341515Y-134357484D01*
X115292891Y-134273061D01*
X115237079Y-134180995D01*
X115175066Y-134082702D01*
X115107841Y-133979597D01*
X115036391Y-133873097D01*
X114961704Y-133764616D01*
X114884769Y-133655572D01*
X114806574Y-133547379D01*
X114728106Y-133441454D01*
X114650353Y-133339213D01*
X114574304Y-133242070D01*
X114500947Y-133151442D01*
X114431269Y-133068745D01*
X114424833Y-133061302D01*
X114365533Y-132992892D01*
X114386206Y-132936583D01*
X114409904Y-132872136D01*
X114429316Y-132819618D01*
X114444892Y-132777874D01*
X114457085Y-132745748D01*
X114466347Y-132722082D01*
X114473130Y-132705722D01*
X114477886Y-132695510D01*
X114481067Y-132690291D01*
X114483032Y-132688905D01*
X114489122Y-132693401D01*
X114504664Y-132706345D01*
X114528720Y-132726921D01*
X114560355Y-132754313D01*
X114598634Y-132787706D01*
X114642620Y-132826283D01*
X114691378Y-132869228D01*
X114743971Y-132915726D01*
X114789901Y-132956462D01*
X114844864Y-133005191D01*
X114896687Y-133050962D01*
X114944446Y-133092973D01*
X114987218Y-133130418D01*
X115024078Y-133162492D01*
X115054102Y-133188390D01*
X115076366Y-133207309D01*
X115089945Y-133218444D01*
X115093964Y-133221192D01*
X115093725Y-133214009D01*
X115092230Y-133193944D01*
X115089567Y-133161966D01*
X115085825Y-133119047D01*
X115081093Y-133066155D01*
X115075459Y-133004261D01*
X115069011Y-132934336D01*
X115061838Y-132857350D01*
X115054027Y-132774272D01*
X115045669Y-132686073D01*
X115044589Y-132674759D01*
X115701620Y-132674759D01*
X115704163Y-132675501D01*
X115714388Y-132667970D01*
X115730168Y-132653764D01*
X115732210Y-132651806D01*
X115756828Y-132631313D01*
X115787418Y-132610308D01*
X115815302Y-132594429D01*
X115877412Y-132570844D01*
X115940461Y-132560774D01*
X116003073Y-132564010D01*
X116063872Y-132580343D01*
X116121481Y-132609563D01*
X116171452Y-132648553D01*
X116189262Y-132664419D01*
X116201904Y-132674124D01*
X116207292Y-132676124D01*
X116207181Y-132674987D01*
X116204497Y-132666617D01*
X116198047Y-132646151D01*
X116188204Y-132614781D01*
X116175341Y-132573698D01*
X116159830Y-132524096D01*
X116142044Y-132467164D01*
X116122357Y-132404097D01*
X116101140Y-132336085D01*
X116079880Y-132267891D01*
X116057647Y-132196600D01*
X116036658Y-132129371D01*
X116017273Y-132067361D01*
X115999857Y-132011728D01*
X115984771Y-131963628D01*
X115972380Y-131924219D01*
X115963046Y-131894658D01*
X115957131Y-131876103D01*
X115955004Y-131869712D01*
X115952770Y-131875888D01*
X115946765Y-131894210D01*
X115937352Y-131923536D01*
X115924891Y-131962722D01*
X115909745Y-132010624D01*
X115892274Y-132066100D01*
X115872841Y-132128005D01*
X115851807Y-132195196D01*
X115829583Y-132266370D01*
X115807201Y-132338109D01*
X115785991Y-132406032D01*
X115766324Y-132468951D01*
X115748573Y-132525677D01*
X115733112Y-132575021D01*
X115720311Y-132615795D01*
X115710544Y-132646811D01*
X115704183Y-132666879D01*
X115701620Y-132674759D01*
X115044589Y-132674759D01*
X115036850Y-132593724D01*
X115035353Y-132578113D01*
G36*
X113551697Y-132943970D02*
G01*
X113571033Y-132947400D01*
X113601352Y-132953030D01*
X113641319Y-132960605D01*
X113689599Y-132969871D01*
X113744859Y-132980572D01*
X113805762Y-132992455D01*
X113870976Y-133005263D01*
X113872094Y-133005484D01*
X113952677Y-133021474D01*
X114020475Y-133035182D01*
X114076396Y-133046815D01*
X114121348Y-133056580D01*
X114156239Y-133064683D01*
X114181978Y-133071330D01*
X114199474Y-133076729D01*
X114209633Y-133081085D01*
X114212102Y-133082804D01*
X114224574Y-133096227D01*
X114243726Y-133119656D01*
X114268447Y-133151566D01*
X114297624Y-133190433D01*
X114330144Y-133234732D01*
X114364896Y-133282937D01*
X114400767Y-133333524D01*
X114436644Y-133384969D01*
X114471415Y-133435745D01*
X114493273Y-133468234D01*
X114596542Y-133627334D01*
X114697719Y-133791776D01*
X114795654Y-133959429D01*
X114889199Y-134128163D01*
X114977202Y-134295847D01*
X115058513Y-134460352D01*
X115131984Y-134619546D01*
X115195782Y-134769617D01*
X115211866Y-134810630D01*
X115229350Y-134857438D01*
X115247411Y-134907618D01*
X115265230Y-134958749D01*
X115281987Y-135008409D01*
X115296860Y-135054176D01*
X115309030Y-135093629D01*
X115317676Y-135124346D01*
X115321389Y-135140372D01*
X115325647Y-135157015D01*
X115330120Y-135165845D01*
X115331077Y-135166274D01*
X115337754Y-135161234D01*
X115352072Y-135147142D01*
X115372646Y-135125541D01*
X115398088Y-135097973D01*
X115427016Y-135065981D01*
X115458042Y-135031108D01*
X115489782Y-134994897D01*
X115520851Y-134958889D01*
X115549864Y-134924628D01*
X115571049Y-134899040D01*
X115635931Y-134817140D01*
X115695680Y-134736123D01*
X115752417Y-134652812D01*
X115808268Y-134564035D01*
X115865354Y-134466615D01*
X115891812Y-134419471D01*
X115911513Y-134384757D01*
X115929166Y-134355166D01*
X115943620Y-134332505D01*
X115953728Y-134318579D01*
X115958259Y-134315088D01*
X115963526Y-134323146D01*
X115973843Y-134340848D01*
X115987705Y-134365556D01*
X116003178Y-134393836D01*
X116080089Y-134529716D01*
X116158247Y-134654810D01*
X116239710Y-134772225D01*
X116326537Y-134885070D01*
X116337337Y-134898357D01*
X116363781Y-134930211D01*
X116393384Y-134965040D01*
X116424767Y-135001306D01*
X116456545Y-135037468D01*
X116487339Y-135071989D01*
X116515766Y-135103329D01*
X116540445Y-135129948D01*
X116559992Y-135150309D01*
X116573028Y-135162872D01*
X116577883Y-135166274D01*
X116582129Y-135160181D01*
X116586610Y-135145069D01*
X116587571Y-135140372D01*
X116592986Y-135117926D01*
X116602549Y-135084900D01*
X116615440Y-135043717D01*
X116630838Y-134996799D01*
X116647924Y-134946567D01*
X116665876Y-134895443D01*
X116683873Y-134845849D01*
X116701097Y-134800206D01*
X116713178Y-134769617D01*
X116776492Y-134620701D01*
X116848659Y-134464261D01*
X116928518Y-134302442D01*
X117014912Y-134137390D01*
X117106683Y-133971251D01*
X117202672Y-133806171D01*
X117301722Y-133644296D01*
X117402675Y-133487772D01*
X117414995Y-133469251D01*
X117448378Y-133419822D01*
X117483611Y-133368694D01*
X117519585Y-133317389D01*
X117555188Y-133267430D01*
X117589312Y-133220339D01*
X117620845Y-133177639D01*
X117648678Y-133140854D01*
X117671700Y-133111504D01*
X117688802Y-133091114D01*
X117696553Y-133083079D01*
X117703906Y-133079111D01*
X117718791Y-133074066D01*
X117742057Y-133067752D01*
X117774552Y-133059977D01*
X117817124Y-133050547D01*
X117870624Y-133039271D01*
X117935898Y-133025955D01*
X118013795Y-133010407D01*
X118036561Y-133005908D01*
X118101866Y-132993064D01*
X118162884Y-132981137D01*
X118218281Y-132970382D01*
X118266724Y-132961055D01*
X118306878Y-132953412D01*
X118337409Y-132947708D01*
X118356985Y-132944198D01*
X118364271Y-132943137D01*
X118364282Y-132943143D01*
X118362871Y-132949843D01*
X118358357Y-132968646D01*
X118351092Y-132998171D01*
X118341424Y-133037039D01*
X118329704Y-133083869D01*
X118316282Y-133137282D01*
X118301509Y-133195897D01*
X118285733Y-133258334D01*
X118269307Y-133323214D01*
X118252579Y-133389155D01*
X118235899Y-133454779D01*
X118219619Y-133518704D01*
X118204087Y-133579551D01*
X118189655Y-133635940D01*
X118176672Y-133686491D01*
X118165488Y-133729823D01*
X118156454Y-133764557D01*
X118149920Y-133789312D01*
X118146235Y-133802708D01*
X118146076Y-133803241D01*
X118147765Y-133808541D01*
X118156068Y-133816598D01*
X118172059Y-133828116D01*
X118196815Y-133843804D01*
X118231413Y-133864366D01*
X118276929Y-133890511D01*
X118292465Y-133899317D01*
X118333695Y-133922840D01*
X118370584Y-133944285D01*
X118401494Y-133962666D01*
X118424786Y-133976997D01*
X118438821Y-133986294D01*
X118442288Y-133989400D01*
X118436575Y-133993811D01*
X118419909Y-134005347D01*
X118393003Y-134023538D01*
X118356567Y-134047913D01*
X118311312Y-134078004D01*
X118257950Y-134113340D01*
X118197192Y-134153452D01*
X118129749Y-134197870D01*
X118056332Y-134246125D01*
X117977653Y-134297746D01*
X117894423Y-134352264D01*
X117807352Y-134409210D01*
X117739519Y-134453515D01*
X117650009Y-134512002D01*
X117563800Y-134568441D01*
X117481605Y-134622360D01*
X117404136Y-134673288D01*
X117332103Y-134720752D01*
X117266218Y-134764282D01*
X117207194Y-134803407D01*
X117155741Y-134837654D01*
X117112572Y-134866551D01*
X117078398Y-134889629D01*
X117053930Y-134906414D01*
X117039881Y-134916436D01*
X117036609Y-134919233D01*
X117038617Y-134927185D01*
X117044405Y-134946948D01*
X117053527Y-134977073D01*
X117065537Y-135016109D01*
X117079987Y-135062609D01*
X117096430Y-135115123D01*
X117114421Y-135172200D01*
X117120899Y-135192667D01*
X117139187Y-135250842D01*
X117155891Y-135304858D01*
X117170588Y-135353284D01*
X117182858Y-135394691D01*
X117192279Y-135427649D01*
X117198428Y-135450726D01*
X117200885Y-135462494D01*
X117200790Y-135463681D01*
X117193366Y-135463537D01*
X117173111Y-135461817D01*
X117141012Y-135458631D01*
X117098052Y-135454090D01*
X117045217Y-135448305D01*
X116983491Y-135441385D01*
X116913861Y-135433441D01*
X116837309Y-135424584D01*
X116754823Y-135414924D01*
X116667386Y-135404571D01*
X116575983Y-135393637D01*
X116575365Y-135393562D01*
X115954480Y-135318904D01*
X115346318Y-135392206D01*
X115255521Y-135403127D01*
X115168459Y-135413557D01*
X115086154Y-135423374D01*
X115009628Y-135432460D01*
X114939902Y-135440694D01*
X114877997Y-135447956D01*
X114824935Y-135454126D01*
X114781738Y-135459085D01*
X114749427Y-135462712D01*
X114729024Y-135464888D01*
X114721756Y-135465507D01*
X114709157Y-135463419D01*
X114705356Y-135459732D01*
X114707394Y-135452038D01*
X114713208Y-135432534D01*
X114722348Y-135402669D01*
X114734364Y-135363894D01*
X114748806Y-135317658D01*
X114765223Y-135265412D01*
X114783167Y-135208605D01*
X114788863Y-135190631D01*
X114807193Y-135132644D01*
X114824129Y-135078704D01*
X114839221Y-135030273D01*
X114852018Y-134988814D01*
X114862070Y-134955788D01*
X114868926Y-134932658D01*
X114872135Y-134920887D01*
X114872320Y-134919790D01*
X114866599Y-134915101D01*
X114849923Y-134903295D01*
X114823004Y-134884844D01*
X114786553Y-134860220D01*
X114741283Y-134829894D01*
X114687903Y-134794340D01*
X114627127Y-134754028D01*
X114559665Y-134709433D01*
X114486229Y-134661025D01*
X114407530Y-134609276D01*
X114324281Y-134554660D01*
X114237192Y-134497648D01*
X114169471Y-134453395D01*
X114079975Y-134394918D01*
X113993781Y-134338516D01*
X113911602Y-134284658D01*
X113834148Y-134233814D01*
X113762130Y-134186454D01*
X113696259Y-134143047D01*
X113637246Y-134104064D01*
X113585803Y-134069972D01*
X113542641Y-134041244D01*
X113508471Y-134018346D01*
X113484003Y-134001751D01*
X113469950Y-133991926D01*
X113466672Y-133989280D01*
X113472476Y-133984556D01*
X113488797Y-133974037D01*
X113513995Y-133958707D01*
X113546432Y-133939550D01*
X113584468Y-133917549D01*
X113616494Y-133899317D01*
X113665408Y-133871406D01*
X113703089Y-133849284D01*
X113730613Y-133832243D01*
X113749057Y-133819578D01*
X113759497Y-133810582D01*
X113763010Y-133804548D01*
X113762884Y-133803241D01*
X113759416Y-133790724D01*
X113753074Y-133766746D01*
X113744207Y-133732687D01*
X113733165Y-133689928D01*
X113720299Y-133639849D01*
X113705959Y-133583829D01*
X113690495Y-133523250D01*
X113674256Y-133459492D01*
X113657593Y-133393934D01*
X113640857Y-133327957D01*
X113624396Y-133262941D01*
X113608562Y-133200267D01*
X113593705Y-133141314D01*
X113580173Y-133087463D01*
X113568319Y-133040094D01*
X113558491Y-133000588D01*
X113551040Y-132970324D01*
X113546315Y-132950682D01*
X113544668Y-132943044D01*
X113544677Y-132942994D01*
X113551697Y-132943970D01*
G37*
X113551697Y-132943970D02*
X113571033Y-132947400D01*
X113601352Y-132953030D01*
X113641319Y-132960605D01*
X113689599Y-132969871D01*
X113744859Y-132980572D01*
X113805762Y-132992455D01*
X113870976Y-133005263D01*
X113872094Y-133005484D01*
X113952677Y-133021474D01*
X114020475Y-133035182D01*
X114076396Y-133046815D01*
X114121348Y-133056580D01*
X114156239Y-133064683D01*
X114181978Y-133071330D01*
X114199474Y-133076729D01*
X114209633Y-133081085D01*
X114212102Y-133082804D01*
X114224574Y-133096227D01*
X114243726Y-133119656D01*
X114268447Y-133151566D01*
X114297624Y-133190433D01*
X114330144Y-133234732D01*
X114364896Y-133282937D01*
X114400767Y-133333524D01*
X114436644Y-133384969D01*
X114471415Y-133435745D01*
X114493273Y-133468234D01*
X114596542Y-133627334D01*
X114697719Y-133791776D01*
X114795654Y-133959429D01*
X114889199Y-134128163D01*
X114977202Y-134295847D01*
X115058513Y-134460352D01*
X115131984Y-134619546D01*
X115195782Y-134769617D01*
X115211866Y-134810630D01*
X115229350Y-134857438D01*
X115247411Y-134907618D01*
X115265230Y-134958749D01*
X115281987Y-135008409D01*
X115296860Y-135054176D01*
X115309030Y-135093629D01*
X115317676Y-135124346D01*
X115321389Y-135140372D01*
X115325647Y-135157015D01*
X115330120Y-135165845D01*
X115331077Y-135166274D01*
X115337754Y-135161234D01*
X115352072Y-135147142D01*
X115372646Y-135125541D01*
X115398088Y-135097973D01*
X115427016Y-135065981D01*
X115458042Y-135031108D01*
X115489782Y-134994897D01*
X115520851Y-134958889D01*
X115549864Y-134924628D01*
X115571049Y-134899040D01*
X115635931Y-134817140D01*
X115695680Y-134736123D01*
X115752417Y-134652812D01*
X115808268Y-134564035D01*
X115865354Y-134466615D01*
X115891812Y-134419471D01*
X115911513Y-134384757D01*
X115929166Y-134355166D01*
X115943620Y-134332505D01*
X115953728Y-134318579D01*
X115958259Y-134315088D01*
X115963526Y-134323146D01*
X115973843Y-134340848D01*
X115987705Y-134365556D01*
X116003178Y-134393836D01*
X116080089Y-134529716D01*
X116158247Y-134654810D01*
X116239710Y-134772225D01*
X116326537Y-134885070D01*
X116337337Y-134898357D01*
X116363781Y-134930211D01*
X116393384Y-134965040D01*
X116424767Y-135001306D01*
X116456545Y-135037468D01*
X116487339Y-135071989D01*
X116515766Y-135103329D01*
X116540445Y-135129948D01*
X116559992Y-135150309D01*
X116573028Y-135162872D01*
X116577883Y-135166274D01*
X116582129Y-135160181D01*
X116586610Y-135145069D01*
X116587571Y-135140372D01*
X116592986Y-135117926D01*
X116602549Y-135084900D01*
X116615440Y-135043717D01*
X116630838Y-134996799D01*
X116647924Y-134946567D01*
X116665876Y-134895443D01*
X116683873Y-134845849D01*
X116701097Y-134800206D01*
X116713178Y-134769617D01*
X116776492Y-134620701D01*
X116848659Y-134464261D01*
X116928518Y-134302442D01*
X117014912Y-134137390D01*
X117106683Y-133971251D01*
X117202672Y-133806171D01*
X117301722Y-133644296D01*
X117402675Y-133487772D01*
X117414995Y-133469251D01*
X117448378Y-133419822D01*
X117483611Y-133368694D01*
X117519585Y-133317389D01*
X117555188Y-133267430D01*
X117589312Y-133220339D01*
X117620845Y-133177639D01*
X117648678Y-133140854D01*
X117671700Y-133111504D01*
X117688802Y-133091114D01*
X117696553Y-133083079D01*
X117703906Y-133079111D01*
X117718791Y-133074066D01*
X117742057Y-133067752D01*
X117774552Y-133059977D01*
X117817124Y-133050547D01*
X117870624Y-133039271D01*
X117935898Y-133025955D01*
X118013795Y-133010407D01*
X118036561Y-133005908D01*
X118101866Y-132993064D01*
X118162884Y-132981137D01*
X118218281Y-132970382D01*
X118266724Y-132961055D01*
X118306878Y-132953412D01*
X118337409Y-132947708D01*
X118356985Y-132944198D01*
X118364271Y-132943137D01*
X118364282Y-132943143D01*
X118362871Y-132949843D01*
X118358357Y-132968646D01*
X118351092Y-132998171D01*
X118341424Y-133037039D01*
X118329704Y-133083869D01*
X118316282Y-133137282D01*
X118301509Y-133195897D01*
X118285733Y-133258334D01*
X118269307Y-133323214D01*
X118252579Y-133389155D01*
X118235899Y-133454779D01*
X118219619Y-133518704D01*
X118204087Y-133579551D01*
X118189655Y-133635940D01*
X118176672Y-133686491D01*
X118165488Y-133729823D01*
X118156454Y-133764557D01*
X118149920Y-133789312D01*
X118146235Y-133802708D01*
X118146076Y-133803241D01*
X118147765Y-133808541D01*
X118156068Y-133816598D01*
X118172059Y-133828116D01*
X118196815Y-133843804D01*
X118231413Y-133864366D01*
X118276929Y-133890511D01*
X118292465Y-133899317D01*
X118333695Y-133922840D01*
X118370584Y-133944285D01*
X118401494Y-133962666D01*
X118424786Y-133976997D01*
X118438821Y-133986294D01*
X118442288Y-133989400D01*
X118436575Y-133993811D01*
X118419909Y-134005347D01*
X118393003Y-134023538D01*
X118356567Y-134047913D01*
X118311312Y-134078004D01*
X118257950Y-134113340D01*
X118197192Y-134153452D01*
X118129749Y-134197870D01*
X118056332Y-134246125D01*
X117977653Y-134297746D01*
X117894423Y-134352264D01*
X117807352Y-134409210D01*
X117739519Y-134453515D01*
X117650009Y-134512002D01*
X117563800Y-134568441D01*
X117481605Y-134622360D01*
X117404136Y-134673288D01*
X117332103Y-134720752D01*
X117266218Y-134764282D01*
X117207194Y-134803407D01*
X117155741Y-134837654D01*
X117112572Y-134866551D01*
X117078398Y-134889629D01*
X117053930Y-134906414D01*
X117039881Y-134916436D01*
X117036609Y-134919233D01*
X117038617Y-134927185D01*
X117044405Y-134946948D01*
X117053527Y-134977073D01*
X117065537Y-135016109D01*
X117079987Y-135062609D01*
X117096430Y-135115123D01*
X117114421Y-135172200D01*
X117120899Y-135192667D01*
X117139187Y-135250842D01*
X117155891Y-135304858D01*
X117170588Y-135353284D01*
X117182858Y-135394691D01*
X117192279Y-135427649D01*
X117198428Y-135450726D01*
X117200885Y-135462494D01*
X117200790Y-135463681D01*
X117193366Y-135463537D01*
X117173111Y-135461817D01*
X117141012Y-135458631D01*
X117098052Y-135454090D01*
X117045217Y-135448305D01*
X116983491Y-135441385D01*
X116913861Y-135433441D01*
X116837309Y-135424584D01*
X116754823Y-135414924D01*
X116667386Y-135404571D01*
X116575983Y-135393637D01*
X116575365Y-135393562D01*
X115954480Y-135318904D01*
X115346318Y-135392206D01*
X115255521Y-135403127D01*
X115168459Y-135413557D01*
X115086154Y-135423374D01*
X115009628Y-135432460D01*
X114939902Y-135440694D01*
X114877997Y-135447956D01*
X114824935Y-135454126D01*
X114781738Y-135459085D01*
X114749427Y-135462712D01*
X114729024Y-135464888D01*
X114721756Y-135465507D01*
X114709157Y-135463419D01*
X114705356Y-135459732D01*
X114707394Y-135452038D01*
X114713208Y-135432534D01*
X114722348Y-135402669D01*
X114734364Y-135363894D01*
X114748806Y-135317658D01*
X114765223Y-135265412D01*
X114783167Y-135208605D01*
X114788863Y-135190631D01*
X114807193Y-135132644D01*
X114824129Y-135078704D01*
X114839221Y-135030273D01*
X114852018Y-134988814D01*
X114862070Y-134955788D01*
X114868926Y-134932658D01*
X114872135Y-134920887D01*
X114872320Y-134919790D01*
X114866599Y-134915101D01*
X114849923Y-134903295D01*
X114823004Y-134884844D01*
X114786553Y-134860220D01*
X114741283Y-134829894D01*
X114687903Y-134794340D01*
X114627127Y-134754028D01*
X114559665Y-134709433D01*
X114486229Y-134661025D01*
X114407530Y-134609276D01*
X114324281Y-134554660D01*
X114237192Y-134497648D01*
X114169471Y-134453395D01*
X114079975Y-134394918D01*
X113993781Y-134338516D01*
X113911602Y-134284658D01*
X113834148Y-134233814D01*
X113762130Y-134186454D01*
X113696259Y-134143047D01*
X113637246Y-134104064D01*
X113585803Y-134069972D01*
X113542641Y-134041244D01*
X113508471Y-134018346D01*
X113484003Y-134001751D01*
X113469950Y-133991926D01*
X113466672Y-133989280D01*
X113472476Y-133984556D01*
X113488797Y-133974037D01*
X113513995Y-133958707D01*
X113546432Y-133939550D01*
X113584468Y-133917549D01*
X113616494Y-133899317D01*
X113665408Y-133871406D01*
X113703089Y-133849284D01*
X113730613Y-133832243D01*
X113749057Y-133819578D01*
X113759497Y-133810582D01*
X113763010Y-133804548D01*
X113762884Y-133803241D01*
X113759416Y-133790724D01*
X113753074Y-133766746D01*
X113744207Y-133732687D01*
X113733165Y-133689928D01*
X113720299Y-133639849D01*
X113705959Y-133583829D01*
X113690495Y-133523250D01*
X113674256Y-133459492D01*
X113657593Y-133393934D01*
X113640857Y-133327957D01*
X113624396Y-133262941D01*
X113608562Y-133200267D01*
X113593705Y-133141314D01*
X113580173Y-133087463D01*
X113568319Y-133040094D01*
X113558491Y-133000588D01*
X113551040Y-132970324D01*
X113546315Y-132950682D01*
X113544668Y-132943044D01*
X113544677Y-132942994D01*
X113551697Y-132943970D01*
D11*
X121512000Y-125483252D02*
X121512000Y-124960748D01*
X120042000Y-125483252D02*
X120042000Y-124960748D01*
X128751000Y-125483252D02*
X128751000Y-124960748D01*
X127281000Y-125483252D02*
X127281000Y-124960748D01*
X124868000Y-125483252D02*
X124868000Y-124960748D01*
X126338000Y-125483252D02*
X126338000Y-124960748D01*
X126992748Y-132053000D02*
X127515252Y-132053000D01*
X126992748Y-130583000D02*
X127515252Y-130583000D01*
X122455000Y-125483252D02*
X122455000Y-124960748D01*
X123925000Y-125483252D02*
X123925000Y-124960748D01*
X110390000Y-125483252D02*
X110390000Y-124960748D01*
X111860000Y-125483252D02*
X111860000Y-124960748D01*
X112803000Y-125483252D02*
X112803000Y-124960748D01*
X114273000Y-125483252D02*
X114273000Y-124960748D01*
X117575064Y-122655000D02*
X117120936Y-122655000D01*
X117575064Y-121185000D02*
X117120936Y-121185000D01*
X117629000Y-125483252D02*
X117629000Y-124960748D01*
X119099000Y-125483252D02*
X119099000Y-124960748D01*
X127014248Y-128043000D02*
X127536752Y-128043000D01*
X127014248Y-129513000D02*
X127536752Y-129513000D01*
X122655064Y-122655000D02*
X122200936Y-122655000D01*
X122655064Y-121185000D02*
X122200936Y-121185000D01*
X104875064Y-134393000D02*
X104420936Y-134393000D01*
X104875064Y-135863000D02*
X104420936Y-135863000D01*
X104909252Y-129259000D02*
X104386748Y-129259000D01*
X104909252Y-127789000D02*
X104386748Y-127789000D01*
X123601000Y-136265000D02*
X123601000Y-134525000D01*
X108301000Y-130465000D02*
X108301000Y-131805000D01*
X109791000Y-130465000D02*
X108301000Y-130465000D01*
X108301000Y-134525000D02*
X108301000Y-136265000D01*
X108301000Y-136265000D02*
X123601000Y-136265000D01*
X109791000Y-130465000D02*
X109791000Y-129265000D01*
X122111000Y-130465000D02*
X123601000Y-130465000D01*
X123601000Y-130465000D02*
X123601000Y-131805000D01*
X114835000Y-118371252D02*
X114835000Y-117848748D01*
X116305000Y-118371252D02*
X116305000Y-117848748D01*
X126971248Y-134393000D02*
X127493752Y-134393000D01*
X126971248Y-135863000D02*
X127493752Y-135863000D01*
X121419252Y-117575000D02*
X120896748Y-117575000D01*
X121419252Y-116105000D02*
X120896748Y-116105000D01*
X127535000Y-118117252D02*
X127535000Y-117594748D01*
X129005000Y-118117252D02*
X129005000Y-117594748D01*
X120930936Y-120115000D02*
X121385064Y-120115000D01*
X120930936Y-118645000D02*
X121385064Y-118645000D01*
X115216000Y-124960748D02*
X115216000Y-125483252D01*
X116686000Y-124960748D02*
X116686000Y-125483252D01*
X109447000Y-125483252D02*
X109447000Y-124960748D01*
X107977000Y-125483252D02*
X107977000Y-124960748D01*
X118591000Y-118337064D02*
X118591000Y-117882936D01*
X117121000Y-118337064D02*
X117121000Y-117882936D01*
%LPC*%
D13*
X124272000Y-119247500D03*
X125222000Y-119247500D03*
X126172000Y-119247500D03*
X126172000Y-116972500D03*
X124272000Y-116972500D03*
D14*
X106039500Y-124526000D03*
X106039500Y-126426000D03*
X103764500Y-126426000D03*
X103764500Y-125476000D03*
X103764500Y-124526000D03*
D15*
X104648000Y-130888500D03*
X105598000Y-132763500D03*
X103698000Y-132763500D03*
D16*
X113318500Y-116840000D03*
X113318500Y-119380000D03*
X113318500Y-121920000D03*
D17*
X120777000Y-124184500D03*
X120777000Y-126259500D03*
X128016000Y-126259500D03*
X128016000Y-124184500D03*
X125603000Y-124184500D03*
X125603000Y-126259500D03*
D18*
X126216500Y-131318000D03*
X128291500Y-131318000D03*
D17*
X123190000Y-124184500D03*
X123190000Y-126259500D03*
X111125000Y-126259500D03*
X111125000Y-124184500D03*
X113538000Y-126259500D03*
X113538000Y-124184500D03*
D19*
X116348000Y-121920000D03*
X118348000Y-121920000D03*
D17*
X118364000Y-124184500D03*
X118364000Y-126259500D03*
D18*
X128313000Y-128778000D03*
X126238000Y-128778000D03*
D19*
X121428000Y-121920000D03*
X123428000Y-121920000D03*
X103648000Y-135128000D03*
X105648000Y-135128000D03*
D20*
X105685500Y-128524000D03*
X103610500Y-128524000D03*
D21*
X110201000Y-129915000D03*
X110701000Y-129915000D03*
X111201000Y-129915000D03*
X111701000Y-129915000D03*
X112201000Y-129915000D03*
X112701000Y-129915000D03*
X113201000Y-129915000D03*
X113701000Y-129915000D03*
X114201000Y-129915000D03*
X114701000Y-129915000D03*
X115201000Y-129915000D03*
X115701000Y-129915000D03*
X116201000Y-129915000D03*
X116701000Y-129915000D03*
X117201000Y-129915000D03*
X117701000Y-129915000D03*
X118201000Y-129915000D03*
X118701000Y-129915000D03*
X119201000Y-129915000D03*
X119701000Y-129915000D03*
X120201000Y-129915000D03*
X120701000Y-129915000D03*
X121201000Y-129915000D03*
X121701000Y-129915000D03*
D22*
X108301000Y-133165000D03*
X123601000Y-133165000D03*
D17*
X115570000Y-119147500D03*
X115570000Y-117072500D03*
D18*
X128270000Y-135128000D03*
X126195000Y-135128000D03*
D20*
X120120500Y-116840000D03*
X122195500Y-116840000D03*
D17*
X128270000Y-116818500D03*
X128270000Y-118893500D03*
D23*
X122158000Y-119380000D03*
X120158000Y-119380000D03*
D24*
X115951000Y-124184500D03*
X115951000Y-126259500D03*
D17*
X108712000Y-126259500D03*
X108712000Y-124184500D03*
D25*
X117856000Y-117110000D03*
X117856000Y-119110000D03*
D26*
X125365000Y-121920000D03*
D27*
X127365000Y-121920000D03*
M02*
