%TF.GenerationSoftware,KiCad,Pcbnew,(6.0.7)*%
%TF.CreationDate,2022-10-10T13:15:42-04:00*%
%TF.ProjectId,dumbwatch,64756d62-7761-4746-9368-2e6b69636164,rev?*%
%TF.SameCoordinates,Original*%
%TF.FileFunction,Paste,Top*%
%TF.FilePolarity,Positive*%
%FSLAX46Y46*%
G04 Gerber Fmt 4.6, Leading zero omitted, Abs format (unit mm)*
G04 Created by KiCad (PCBNEW (6.0.7)) date 2022-10-10 13:15:42*
%MOMM*%
%LPD*%
G01*
G04 APERTURE LIST*
G04 Aperture macros list*
%AMRoundRect*
0 Rectangle with rounded corners*
0 $1 Rounding radius*
0 $2 $3 $4 $5 $6 $7 $8 $9 X,Y pos of 4 corners*
0 Add a 4 corners polygon primitive as box body*
4,1,4,$2,$3,$4,$5,$6,$7,$8,$9,$2,$3,0*
0 Add four circle primitives for the rounded corners*
1,1,$1+$1,$2,$3*
1,1,$1+$1,$4,$5*
1,1,$1+$1,$6,$7*
1,1,$1+$1,$8,$9*
0 Add four rect primitives between the rounded corners*
20,1,$1+$1,$2,$3,$4,$5,0*
20,1,$1+$1,$4,$5,$6,$7,0*
20,1,$1+$1,$6,$7,$8,$9,0*
20,1,$1+$1,$8,$9,$2,$3,0*%
G04 Aperture macros list end*
%ADD10RoundRect,0.150000X0.150000X-0.512500X0.150000X0.512500X-0.150000X0.512500X-0.150000X-0.512500X0*%
%ADD11RoundRect,0.150000X-0.512500X-0.150000X0.512500X-0.150000X0.512500X0.150000X-0.512500X0.150000X0*%
%ADD12RoundRect,0.150000X0.150000X-0.587500X0.150000X0.587500X-0.150000X0.587500X-0.150000X-0.587500X0*%
%ADD13R,2.000000X1.000000*%
%ADD14RoundRect,0.250000X0.475000X-0.337500X0.475000X0.337500X-0.475000X0.337500X-0.475000X-0.337500X0*%
%ADD15RoundRect,0.250000X-0.337500X-0.475000X0.337500X-0.475000X0.337500X0.475000X-0.337500X0.475000X0*%
%ADD16RoundRect,0.250000X0.350000X0.450000X-0.350000X0.450000X-0.350000X-0.450000X0.350000X-0.450000X0*%
%ADD17RoundRect,0.250000X0.337500X0.475000X-0.337500X0.475000X-0.337500X-0.475000X0.337500X-0.475000X0*%
%ADD18R,0.300000X1.300000*%
%ADD19R,1.800000X2.200000*%
%ADD20RoundRect,0.250000X-0.350000X-0.450000X0.350000X-0.450000X0.350000X0.450000X-0.350000X0.450000X0*%
%ADD21RoundRect,0.250000X-0.475000X0.337500X-0.475000X-0.337500X0.475000X-0.337500X0.475000X0.337500X0*%
%ADD22RoundRect,0.250000X0.450000X-0.350000X0.450000X0.350000X-0.450000X0.350000X-0.450000X-0.350000X0*%
G04 APERTURE END LIST*
D10*
X124272000Y-119247500D03*
X125222000Y-119247500D03*
X126172000Y-119247500D03*
X126172000Y-116972500D03*
X124272000Y-116972500D03*
D11*
X106039500Y-124526000D03*
X106039500Y-126426000D03*
X103764500Y-126426000D03*
X103764500Y-125476000D03*
X103764500Y-124526000D03*
D12*
X104648000Y-130888500D03*
X105598000Y-132763500D03*
X103698000Y-132763500D03*
D13*
X113318500Y-116840000D03*
X113318500Y-119380000D03*
X113318500Y-121920000D03*
D14*
X120777000Y-124184500D03*
X120777000Y-126259500D03*
X128016000Y-126259500D03*
X128016000Y-124184500D03*
X125603000Y-124184500D03*
X125603000Y-126259500D03*
D15*
X126216500Y-131318000D03*
X128291500Y-131318000D03*
D14*
X123190000Y-124184500D03*
X123190000Y-126259500D03*
X111125000Y-126259500D03*
X111125000Y-124184500D03*
X113538000Y-126259500D03*
X113538000Y-124184500D03*
D16*
X116348000Y-121920000D03*
X118348000Y-121920000D03*
D14*
X118364000Y-124184500D03*
X118364000Y-126259500D03*
D15*
X128313000Y-128778000D03*
X126238000Y-128778000D03*
D16*
X121428000Y-121920000D03*
X123428000Y-121920000D03*
X103648000Y-135128000D03*
X105648000Y-135128000D03*
D17*
X105685500Y-128524000D03*
X103610500Y-128524000D03*
D18*
X110201000Y-129915000D03*
X110701000Y-129915000D03*
X111201000Y-129915000D03*
X111701000Y-129915000D03*
X112201000Y-129915000D03*
X112701000Y-129915000D03*
X113201000Y-129915000D03*
X113701000Y-129915000D03*
X114201000Y-129915000D03*
X114701000Y-129915000D03*
X115201000Y-129915000D03*
X115701000Y-129915000D03*
X116201000Y-129915000D03*
X116701000Y-129915000D03*
X117201000Y-129915000D03*
X117701000Y-129915000D03*
X118201000Y-129915000D03*
X118701000Y-129915000D03*
X119201000Y-129915000D03*
X119701000Y-129915000D03*
X120201000Y-129915000D03*
X120701000Y-129915000D03*
X121201000Y-129915000D03*
X121701000Y-129915000D03*
D19*
X108301000Y-133165000D03*
X123601000Y-133165000D03*
D14*
X115570000Y-119147500D03*
X115570000Y-117072500D03*
D15*
X128270000Y-135128000D03*
X126195000Y-135128000D03*
D17*
X120120500Y-116840000D03*
X122195500Y-116840000D03*
D14*
X128270000Y-116818500D03*
X128270000Y-118893500D03*
D20*
X122158000Y-119380000D03*
X120158000Y-119380000D03*
D21*
X115951000Y-124184500D03*
X115951000Y-126259500D03*
D14*
X108712000Y-126259500D03*
X108712000Y-124184500D03*
D22*
X117856000Y-117110000D03*
X117856000Y-119110000D03*
M02*
